<svg xmlns="http://www.w3.org/2000/svg" style="margin:auto;background:#fff" width="200" height="200" viewBox="0 0 100 100" preserveAspectRatio="xMidYMid" display="block"><rect x="47" y="24" rx="3" ry="6" width="6" height="12" fill="#292664"><animate attributeName="opacity" values="1;0" keyTimes="0;1" dur="1.639344262295082s" begin="-1.5368852459016393s" repeatCount="indefinite"/></rect><rect x="47" y="24" rx="3" ry="6" width="6" height="12" fill="#292664" transform="rotate(22.5 50 50)"><animate attributeName="opacity" values="1;0" keyTimes="0;1" dur="1.639344262295082s" begin="-1.4344262295081966s" repeatCount="indefinite"/></rect><rect x="47" y="24" rx="3" ry="6" width="6" height="12" fill="#292664" transform="rotate(45 50 50)"><animate attributeName="opacity" values="1;0" keyTimes="0;1" dur="1.639344262295082s" begin="-1.3319672131147542s" repeatCount="indefinite"/></rect><rect x="47" y="24" rx="3" ry="6" width="6" height="12" fill="#292664" transform="rotate(67.5 50 50)"><animate attributeName="opacity" values="1;0" keyTimes="0;1" dur="1.639344262295082s" begin="-1.2295081967213115s" repeatCount="indefinite"/></rect><rect x="47" y="24" rx="3" ry="6" width="6" height="12" fill="#292664" transform="rotate(90 50 50)"><animate attributeName="opacity" values="1;0" keyTimes="0;1" dur="1.639344262295082s" begin="-1.1270491803278688s" repeatCount="indefinite"/></rect><rect x="47" y="24" rx="3" ry="6" width="6" height="12" fill="#292664" transform="rotate(112.5 50 50)"><animate attributeName="opacity" values="1;0" keyTimes="0;1" dur="1.639344262295082s" begin="-1.0245901639344261s" repeatCount="indefinite"/></rect><rect x="47" y="24" rx="3" ry="6" width="6" height="12" fill="#292664" transform="rotate(135 50 50)"><animate attributeName="opacity" values="1;0" keyTimes="0;1" dur="1.639344262295082s" begin="-0.9221311475409836s" repeatCount="indefinite"/></rect><rect x="47" y="24" rx="3" ry="6" width="6" height="12" fill="#292664" transform="rotate(157.5 50 50)"><animate attributeName="opacity" values="1;0" keyTimes="0;1" dur="1.639344262295082s" begin="-0.819672131147541s" repeatCount="indefinite"/></rect><rect x="47" y="24" rx="3" ry="6" width="6" height="12" fill="#292664" transform="rotate(180 50 50)"><animate attributeName="opacity" values="1;0" keyTimes="0;1" dur="1.639344262295082s" begin="-0.7172131147540983s" repeatCount="indefinite"/></rect><rect x="47" y="24" rx="3" ry="6" width="6" height="12" fill="#292664" transform="rotate(202.5 50 50)"><animate attributeName="opacity" values="1;0" keyTimes="0;1" dur="1.639344262295082s" begin="-0.6147540983606558s" repeatCount="indefinite"/></rect><rect x="47" y="24" rx="3" ry="6" width="6" height="12" fill="#292664" transform="rotate(225 50 50)"><animate attributeName="opacity" values="1;0" keyTimes="0;1" dur="1.639344262295082s" begin="-0.5122950819672131s" repeatCount="indefinite"/></rect><rect x="47" y="24" rx="3" ry="6" width="6" height="12" fill="#292664" transform="rotate(247.5 50 50)"><animate attributeName="opacity" values="1;0" keyTimes="0;1" dur="1.639344262295082s" begin="-0.4098360655737705s" repeatCount="indefinite"/></rect><rect x="47" y="24" rx="3" ry="6" width="6" height="12" fill="#292664" transform="rotate(270 50 50)"><animate attributeName="opacity" values="1;0" keyTimes="0;1" dur="1.639344262295082s" begin="-0.3073770491803279s" repeatCount="indefinite"/></rect><rect x="47" y="24" rx="3" ry="6" width="6" height="12" fill="#292664" transform="rotate(292.5 50 50)"><animate attributeName="opacity" values="1;0" keyTimes="0;1" dur="1.639344262295082s" begin="-0.20491803278688525s" repeatCount="indefinite"/></rect><rect x="47" y="24" rx="3" ry="6" width="6" height="12" fill="#292664" transform="rotate(315 50 50)"><animate attributeName="opacity" values="1;0" keyTimes="0;1" dur="1.639344262295082s" begin="-0.10245901639344263s" repeatCount="indefinite"/></rect><rect x="47" y="24" rx="3" ry="6" width="6" height="12" fill="#292664" transform="rotate(337.5 50 50)"><animate attributeName="opacity" values="1;0" keyTimes="0;1" dur="1.639344262295082s" begin="0s" repeatCount="indefinite"/></rect></svg>