<svg width="106" height="19" fill="none" xmlns="http://www.w3.org/2000/svg"><path d="M4.142 11.304l-1.366 5.918a.916.916 0 001.402.97l4.994-3.33 4.995 3.33a.918.918 0 001.391-1.015l-1.678-5.87 4.161-3.744a.917.917 0 00-.541-1.596l-5.23-.416L10.009.54a.916.916 0 00-1.671 0L6.075 5.55l-5.23.415a.917.917 0 00-.567 1.571l3.865 3.767zM6.76 7.336a.916.916 0 00.763-.537l1.65-3.652 1.65 3.652a.915.915 0 00.764.537l3.643.29-3 2.7a.92.92 0 00-.27.933l1.15 4.022-3.427-2.284a.913.913 0 00-1.017 0l-3.58 2.387.962-4.17a.917.917 0 00-.253-.862L3.008 7.635l3.751-.299zm41.382 3.968l-1.366 5.918a.916.916 0 001.402.97l4.994-3.33 4.995 3.33a.918.918 0 001.391-1.015l-1.678-5.87 4.161-3.744a.917.917 0 00-.541-1.596l-5.23-.416L54.009.54a.916.916 0 00-1.671 0l-2.263 5.01-5.23.415a.917.917 0 00-.567 1.571l3.865 3.767zm2.617-3.968a.915.915 0 00.763-.537l1.65-3.652 1.65 3.652a.915.915 0 00.764.537l3.643.29-3 2.7a.92.92 0 00-.27.933l1.15 4.022-3.427-2.284a.913.913 0 00-1.017 0l-3.58 2.387.962-4.17a.917.917 0 00-.253-.862l-2.786-2.717 3.751-.299zm-24.617 3.968l-1.366 5.918a.916.916 0 001.402.97l4.994-3.33 4.995 3.33a.918.918 0 001.391-1.015l-1.678-5.87 4.161-3.744a.917.917 0 00-.541-1.596l-5.23-.416L32.009.54a.916.916 0 00-1.671 0l-2.263 5.01-5.23.415a.917.917 0 00-.567 1.571l3.865 3.767zm2.617-3.968a.915.915 0 00.763-.537l1.65-3.652 1.65 3.652a.915.915 0 00.764.537l3.643.29-3 2.7a.92.92 0 00-.27.933l1.15 4.022-3.427-2.284a.913.913 0 00-1.017 0l-3.58 2.387.962-4.17a.917.917 0 00-.253-.862l-2.786-2.717 3.751-.299zm40.383 3.968l-1.366 5.918a.916.916 0 001.402.97l4.994-3.33 4.995 3.33a.918.918 0 001.391-1.015l-1.678-5.87 4.161-3.744a.917.917 0 00-.541-1.596l-5.23-.416L75.009.54a.916.916 0 00-1.671 0l-2.263 5.01-5.23.415a.917.917 0 00-.567 1.571l3.865 3.767zm2.617-3.968a.915.915 0 00.763-.537l1.65-3.652 1.65 3.652a.915.915 0 00.764.537l3.643.29-3 2.7a.92.92 0 00-.27.933l1.15 4.022-3.427-2.284a.913.913 0 00-1.017 0l-3.58 2.387.962-4.17a.917.917 0 00-.253-.862l-2.786-2.717 3.751-.299zm19.383 3.968l-1.366 5.918a.916.916 0 001.402.97l4.994-3.33 4.995 3.33a.916.916 0 001.391-1.015l-1.677-5.87 4.16-3.744a.917.917 0 00-.541-1.596l-5.23-.416L97.009.54a.916.916 0 00-1.671 0l-2.263 5.01-5.23.415a.917.917 0 00-.567 1.571l3.865 3.767zm2.617-3.968a.915.915 0 00.763-.537l1.65-3.652 1.65 3.652a.915.915 0 00.764.537l3.643.29-3 2.7a.92.92 0 00-.27.933l1.15 4.022-3.427-2.284a.913.913 0 00-1.017 0l-3.58 2.387.962-4.17a.917.917 0 00-.253-.862l-2.786-2.717 3.751-.299z" fill="#F3CD03"/></svg>