<svg width="105" height="19" fill="none" xmlns="http://www.w3.org/2000/svg"><path d="M104.296 6.587a.923.923 0 00-.796-.62l-5.23-.416L96.009.542a.916.916 0 00-1.671 0l-2.263 5.01-5.23.415a.917.917 0 00-.567 1.57l3.864 3.768-1.366 5.918a.918.918 0 001.403.97l4.994-3.33 4.995 3.33a.917.917 0 001.391-1.015l-1.678-5.87 4.161-3.745a.918.918 0 00.255-.976zm-21 0a.918.918 0 00-.796-.62l-5.23-.416L75.009.542a.916.916 0 00-1.671 0l-2.263 5.01-5.23.415a.917.917 0 00-.567 1.57l3.864 3.768-1.366 5.918a.918.918 0 001.403.97l4.994-3.33 4.995 3.33a.918.918 0 001.391-1.015l-1.678-5.87 4.161-3.745a.919.919 0 00.255-.976zm-21 0a.918.918 0 00-.796-.62l-5.23-.416L54.009.542a.916.916 0 00-1.671 0l-2.263 5.01-5.23.415a.917.917 0 00-.567 1.57l3.864 3.768-1.366 5.918a.918.918 0 001.403.97l4.994-3.33 4.995 3.33a.918.918 0 001.391-1.015l-1.678-5.87 4.161-3.745a.919.919 0 00.255-.976zm-44 0a.918.918 0 00-.796-.62l-5.23-.416L10.009.542a.916.916 0 00-1.671 0l-2.263 5.01-5.23.415a.917.917 0 00-.567 1.57l3.864 3.768-1.366 5.918a.917.917 0 001.403.97l4.994-3.33 4.995 3.33a.918.918 0 001.391-1.015l-1.678-5.87 4.161-3.745a.919.919 0 00.255-.976zm22.014 0a.918.918 0 00-.796-.62l-5.23-.416L32.023.542a.915.915 0 00-1.671 0l-2.263 5.01-5.229.415a.917.917 0 00-.568 1.57l3.864 3.768-1.366 5.918a.917.917 0 001.403.97l4.994-3.33 4.995 3.33a.918.918 0 001.391-1.015l-1.677-5.87 4.16-3.745a.919.919 0 00.255-.976z" fill="#F3CD03"/></svg>