<svg width="528" height="393" fill="none" xmlns="http://www.w3.org/2000/svg"><path d="M77.333 351.945c103.09 53.863 270.255 53.863 373.345 0 103.09-53.862 103.102-141.184 0-195.046-103.102-53.863-270.255-53.863-373.358 0-103.102 53.862-103.09 141.184.013 195.046z" fill="#F5F5F5"/><path d="M50.665 171.563s-.613-13.831-8.19-21.874-16.148-6.02-19.152-4.291c-3.003 1.728-4.818 6.314.638 9.244 5.456 2.931 17.055 8.767 19.225 14.395l7.48 2.526z" fill="#02897A"/><path d="M26.646 146.771c4.672 1.116 18.27 7.798 20.5 21.616" stroke="#fff" stroke-width=".997" stroke-miterlimit="10" stroke-linecap="round"/><path d="M47.147 168.387c-.65-3.47-4.132-5.701-9.895-4.426-5.763 1.275-4.904 1.079-12.163-.368-7.258-1.447-12.04 1.753-12.408 4.524-.417 3.016 5.48 4.022 9.931 5.738 4.451 1.717 7.578 4.034 6.744 8.007-.711 3.396 0 6.204 5.235 7.16 4.647.846 9.417-2.072 11.538 2.232a6.818 6.818 0 009.49 2.452c9.76-11.182-8.472-25.319-8.472-25.319z" fill="#02897A"/><path d="M34.591 182.082a20.498 20.498 0 0110.545-5.161m-27.281-10.594c7.504.147 29.819 7.933 36.023 19.838" stroke="#fff" stroke-width=".997" stroke-miterlimit="10" stroke-linecap="round"/><path d="M62.006 244.429a28.283 28.283 0 01-8.165-3.518c-2.122-1.227-24.67-14.211-35.557-20.55a12.658 12.658 0 00-11.513-.171c-.74.4-1.36.993-1.79 1.716h-.405v1.398a4.303 4.303 0 002.563 3.494l35.703 20.623c1.877 1.067 5.15 3.053 5.947 4.671l-.552.319v1.41l16.761-9.674v-1.41l-2.992 1.692z" fill="#37474F"/><path d="M6.771 218.743c-3.065 1.765-2.894 4.72.368 6.608l35.704 20.586c2.648 1.521 8.092 4.905 5.394 6.401l16.761-9.674c-2.66 1.557-8.325-1.557-11.157-3.2-2.121-1.226-24.67-14.211-35.557-20.562a12.686 12.686 0 00-11.513-.159z" fill="#455A64"/><path d="M66.15 240.531l-16.258 9.391a5.562 5.562 0 00-2.947 4.905 5.554 5.554 0 002.947 4.904l21.8 12.592a6.526 6.526 0 005.91 0l16.258-9.392a5.536 5.536 0 002.961-4.904 5.544 5.544 0 00-2.96-4.904l-21.8-12.592a6.513 6.513 0 00-5.91 0z" fill="#37474F"/><path d="M49.893 249.922l16.258-9.391a6.513 6.513 0 015.91 0l21.8 12.579c1.63.944 1.63 2.452 0 3.421l-16.222 9.38a6.525 6.525 0 01-5.91 0l-21.836-12.617c-1.68-.907-1.68-2.452 0-3.372z" fill="#BA68C8"/><path d="M143.848 293.755h-.392a5.324 5.324 0 00-2.158-2.109l-43.956-25.38c-1.9-1.091-3.678-2.182-2.452-4.965v-1.398l-16.92 9.809v1.397a9.81 9.81 0 018.313 1.606c1.692 1.067 30.554 17.681 43.956 25.381a12.658 12.658 0 0011.451.208 3.677 3.677 0 002.183-3.102l-.025-1.447z" fill="#37474F"/><path d="M86.307 271.269c1.692 1.054 30.555 17.68 43.956 25.38a12.7 12.7 0 0011.452.208c3.053-1.765 2.893-4.732-.368-6.608l-43.956-25.381c-1.9-1.091-3.678-2.194-2.452-4.965l-16.92 9.809a9.802 9.802 0 018.288 1.557z" fill="#455A64"/><path d="M129.441 289.746a.725.725 0 000 1.373 2.631 2.631 0 002.379 0 .727.727 0 00.496-.687.722.722 0 00-.496-.686 2.627 2.627 0 00-2.379 0zm-8.312-4.794a.733.733 0 00-.354 1.116.733.733 0 00.354.269 2.614 2.614 0 002.378 0 .733.733 0 00.354-1.116.733.733 0 00-.354-.269 2.614 2.614 0 00-2.378 0zm-8.314-4.782a.725.725 0 000 1.373 2.646 2.646 0 002.391 0 .723.723 0 000-1.373 2.652 2.652 0 00-2.391 0zm-8.3-4.806a.72.72 0 00-.495.686.724.724 0 00.495.687 2.631 2.631 0 002.379 0 .724.724 0 000-1.373 2.63 2.63 0 00-2.379 0zm-8.313-4.757a.721.721 0 000 1.373 2.629 2.629 0 002.379 0 .725.725 0 00.359-1.11.714.714 0 00-.36-.263 2.615 2.615 0 00-2.378 0z" fill="#37474F"/><path d="M74.647 265.935a5.369 5.369 0 01-2.611-.613l-21.8-12.592c-.552-.319-.883-.723-.883-1.103s.331-.797.883-1.116l16.258-9.392a5.873 5.873 0 015.223 0l21.861 12.592c.564.319.883.723.883 1.104 0 .38-.319.796-.883 1.115l-16.258 9.392a5.366 5.366 0 01-2.673.613z" fill="#F0F0F0"/><path d="M69.056 241.193a4.679 4.679 0 012.269.515l21.8 12.591c.441.258.54.479.54.528 0 .049-.099.257-.54.515l-16.258 9.392a5.252 5.252 0 01-4.537 0l-21.75-12.592c-.442-.258-.54-.479-.54-.515 0-.037.098-.27.54-.528l16.257-9.391a4.68 4.68 0 012.269-.515h-.05zm0-1.386a6.131 6.131 0 00-2.954.711l-16.258 9.392c-1.631.932-1.631 2.452 0 3.409l21.8 12.579a6.5 6.5 0 005.91 0l16.257-9.379c1.631-.944 1.631-2.452 0-3.421l-21.75-12.568a6.14 6.14 0 00-3.005-.723z" fill="#fff"/><path d="M53.706 241.315l16.258-9.379a6.513 6.513 0 015.91 0l21.787 12.579c1.631.944 1.631 2.452 0 3.409l-16.245 9.392a6.525 6.525 0 01-5.91 0l-21.8-12.605c-1.63-.919-1.63-2.452 0-3.396z" fill="#37474F"/><path d="M68.346 250.453a.284.284 0 01-.166.038.657.657 0 01-.212-.085l-.084-.048c-.081-.047-.128-.086-.141-.118-.013-.037.006-.071.057-.101l.808-.468-3.296-1.894-.736.583c-.047.027-.126.024-.238-.01a1.499 1.499 0 01-.295-.126c-.077-.044-.082-.096-.013-.155l1.044-.932a.509.509 0 01.192-.06c.073-.012.128-.008.167.015l3.829 2.2.692-.402a.253.253 0 01.167-.03.53.53 0 01.212.078l.083.048c.081.047.129.088.141.126.013.032-.006.062-.057.092l-2.154 1.249zm2.788-1.617c-.038.023-.113.019-.224-.01a1.37 1.37 0 01-.283-.118c-.051-.03-.08-.053-.084-.071l-.639-2.069a1.486 1.486 0 00-.18-.422.923.923 0 00-.29-.248 1.113 1.113 0 00-.616-.147 1.33 1.33 0 00-.628.187.937.937 0 00-.308.252c-.05.079-.1.177-.147.293-.013.067-.032.108-.057.123-.052.029-.152.036-.302.019a.897.897 0 01-.314-.077c-.09-.052-.114-.135-.071-.249a.99.99 0 01.255-.371c.133-.131.282-.245.449-.341a2.628 2.628 0 011.225-.362 2.05 2.05 0 011.149.261c.15.086.268.178.353.277.09.096.165.221.226.374.06.153.122.366.187.64l.458 1.344 1.545-.896a.248.248 0 01.16-.034.53.53 0 01.212.078l.084.048c.08.047.128.088.141.126.013.032-.006.062-.058.092l-2.243 1.301zm.597-3.328c-.188.109-.336.133-.443.072l-.469-.27c-.107-.061-.067-.147.121-.256l.142-.081c.188-.109.335-.133.442-.072l.47.27c.106.061.066.147-.122.256l-.141.081zM74.326 247c-.188.109-.336.133-.443.071l-.469-.269c-.107-.062-.066-.147.122-.256l.14-.082c.189-.109.336-.133.443-.071l.47.269c.106.062.066.147-.122.256l-.141.082zm2.295-1.294c-.394.228-.894.298-1.502.211-.603-.091-1.288-.356-2.054-.797-.767-.44-1.23-.834-1.389-1.182-.154-.351-.035-.64.358-.868.397-.23.9-.302 1.507-.214.608.088 1.295.352 2.062.792.766.441 1.227.836 1.382 1.187.154.35.033.641-.364.871zm-.54-.317c.184-.107.194-.266.031-.478-.159-.215-.555-.504-1.189-.869-.634-.364-1.137-.591-1.509-.682-.368-.093-.644-.086-.828.02-.183.107-.194.266-.03.478.158.21.556.498 1.194.865.638.366 1.141.596 1.51.69.363.09.637.082.82-.024zM79.562 244c-.393.228-.893.298-1.5.21-.604-.09-1.29-.355-2.056-.796-.766-.44-1.23-.834-1.388-1.182-.155-.351-.035-.64.358-.868.397-.23.9-.302 1.507-.214.608.088 1.295.352 2.061.792.767.441 1.228.836 1.382 1.187.155.35.034.641-.364.871zm-.54-.318c.184-.106.195-.265.032-.477-.159-.215-.555-.504-1.19-.869-.633-.364-1.136-.591-1.508-.682-.368-.093-.644-.086-.828.02-.184.107-.194.266-.031.478.159.21.557.498 1.195.865.638.366 1.141.596 1.51.689.363.091.637.083.82-.024z" fill="#fff"/><path d="M204.662 237.355l-38.413 22.18a5.535 5.535 0 00-2.961 4.904 5.543 5.543 0 002.961 4.905l71.653 41.38a6.59 6.59 0 005.909 0l38.414-22.18a5.54 5.54 0 000-9.809l-71.653-41.38a6.525 6.525 0 00-5.91 0z" fill="#455A64"/><path d="M204.662 237.355l-38.413 22.18a5.535 5.535 0 00-2.961 4.904 5.543 5.543 0 002.961 4.905l71.653 41.38a6.59 6.59 0 005.909 0l38.414-22.18a5.54 5.54 0 000-9.809l-71.653-41.38a6.525 6.525 0 00-5.91 0z" fill="#455A64"/><path d="M204.662 237.355l-38.413 22.18a5.535 5.535 0 00-2.961 4.904 5.543 5.543 0 002.961 4.905l71.653 41.38a6.59 6.59 0 005.909 0l38.414-22.18a5.54 5.54 0 000-9.809l-71.653-41.38a6.525 6.525 0 00-5.91 0z" fill="#455A64"/><path opacity=".1" d="M204.662 237.355l-38.413 22.18a5.535 5.535 0 00-2.961 4.904 5.543 5.543 0 002.961 4.905l71.653 41.38a6.59 6.59 0 005.909 0l38.414-22.18a5.54 5.54 0 000-9.809l-71.653-41.38a6.525 6.525 0 00-5.91 0z" fill="#000"/><path d="M240.857 254.827l-30.285-17.472a6.525 6.525 0 00-5.91 0l-38.413 22.18a5.535 5.535 0 00-2.961 4.904 5.543 5.543 0 002.961 4.905l71.653 41.38c.91.477 1.927.718 2.955.699v-56.596z" fill="#455A64"/><path d="M237.914 304.3l-71.665-41.381c-1.631-.932-1.631-2.452 0-3.409l38.413-22.155a6.528 6.528 0 015.91 0l71.653 41.381c1.631.931 1.631 2.452 0 3.408L243.812 304.3a6.502 6.502 0 01-5.898 0z" fill="#455A64"/><path d="M237.914 304.3l-71.665-41.381c-1.631-.932-1.631-2.452 0-3.409l38.413-22.155a6.528 6.528 0 015.91 0l71.653 41.381c1.631.931 1.631 2.452 0 3.408L243.812 304.3a6.502 6.502 0 01-5.898 0z" fill="#455A64"/><path d="M237.914 304.3l-71.665-41.381c-1.631-.932-1.631-2.452 0-3.409l38.413-22.155a6.528 6.528 0 015.91 0l71.653 41.381c1.631.931 1.631 2.452 0 3.408L243.812 304.3a6.502 6.502 0 01-5.898 0z" fill="#455A64"/><path opacity=".2" d="M237.914 304.3l-71.665-41.381c-1.631-.932-1.631-2.452 0-3.409l38.413-22.155a6.528 6.528 0 015.91 0l71.653 41.381c1.631.931 1.631 2.452 0 3.408L243.812 304.3a6.502 6.502 0 01-5.898 0z" fill="#fff"/><path d="M175.555 263.74l36.427-21.027a2.575 2.575 0 012.354 0l58.583 33.877c.14.05.261.143.346.265a.716.716 0 010 .831.722.722 0 01-.346.265l-36.415 21.027a2.593 2.593 0 01-2.367 0l-58.582-33.815a.724.724 0 010-1.423z" fill="#fff"/><path d="M260.645 291.806a4.155 4.155 0 01-3.8 0c-1.055-.601-1.055-1.582 0-2.195a4.22 4.22 0 013.8 0c1.055.613 1.055 1.594 0 2.195z" fill="#455A64"/><path opacity=".1" d="M260.645 291.806a4.155 4.155 0 01-3.8 0c-1.055-.601-1.055-1.582 0-2.195a4.22 4.22 0 013.8 0c1.055.613 1.055 1.594 0 2.195z" fill="#000"/><path d="M188.453 250.131a1.02 1.02 0 01-.956 0 .297.297 0 01-.192-.276.296.296 0 01.192-.276 1.02 1.02 0 01.956 0 .295.295 0 010 .552zm-1.532 4.389a2.159 2.159 0 01-1.937 0 .588.588 0 010-1.115 2.155 2.155 0 011.937 0 .585.585 0 01.401.557.588.588 0 01-.401.558zm1.361-1.949c-.356-.209-.344-.552 0-.773l6.351-3.678a1.518 1.518 0 011.324 0c.356.208.331.552 0 .772l-6.339 3.679a1.49 1.49 0 01-1.336 0z" fill="#455A64"/><path d="M188.453 249.616a.293.293 0 010 .552 1.02 1.02 0 01-.956 0m-.576 4.352a2.159 2.159 0 01-1.937 0 .588.588 0 010-1.115 2.155 2.155 0 011.937 0 .585.585 0 01.401.557.588.588 0 01-.401.558zm1.361-1.949c-.356-.209-.344-.552 0-.773l6.351-3.678a1.518 1.518 0 011.324 0c.356.208.331.552 0 .772l-6.339 3.679a1.49 1.49 0 01-1.336 0z" fill="#455A64"/><path d="M188.453 249.616a.293.293 0 010 .552 1.02 1.02 0 01-.956 0m-.576 4.352a2.159 2.159 0 01-1.937 0 .588.588 0 010-1.115 2.155 2.155 0 011.937 0 .585.585 0 01.401.557.588.588 0 01-.401.558zm1.361-1.949c-.356-.209-.344-.552 0-.773l6.351-3.678a1.518 1.518 0 011.324 0c.356.208.331.552 0 .772l-6.339 3.679a1.49 1.49 0 01-1.336 0z" fill="#455A64"/><path opacity=".1" d="M188.453 250.131a1.02 1.02 0 01-.956 0 .297.297 0 01-.192-.276.296.296 0 01.192-.276 1.02 1.02 0 01.956 0 .295.295 0 010 .552z" fill="#000"/><path opacity=".1" d="M188.453 249.616a.293.293 0 010 .552 1.02 1.02 0 01-.956 0m-.576 4.352a2.159 2.159 0 01-1.937 0 .588.588 0 010-1.115 2.155 2.155 0 011.937 0 .585.585 0 01.401.557.588.588 0 01-.401.558zm1.361-1.949c-.356-.209-.344-.552 0-.773l6.351-3.678a1.518 1.518 0 011.324 0c.356.208.331.552 0 .772l-6.339 3.679a1.49 1.49 0 01-1.336 0z" fill="#000"/><path d="M459.898 227.73l60.581 34.968a5.542 5.542 0 010 9.809l-93.833 54.181a6.52 6.52 0 01-5.909 0l-60.569-34.981a5.54 5.54 0 010-9.808l93.882-54.169a6.497 6.497 0 015.848 0z" fill="#455A64"/><path d="M459.898 227.73l60.581 34.968a5.542 5.542 0 010 9.809l-93.833 54.181a6.52 6.52 0 01-5.909 0l-60.569-34.981a5.54 5.54 0 010-9.808l93.882-54.169a6.497 6.497 0 015.848 0z" fill="#455A64"/><path opacity=".2" d="M459.898 227.73l60.581 34.968a5.542 5.542 0 010 9.809l-93.833 54.181a6.52 6.52 0 01-5.909 0l-60.569-34.981a5.54 5.54 0 010-9.808l93.882-54.169a6.497 6.497 0 015.848 0z" fill="#000"/><path d="M401.536 258.015l52.514-30.285a6.496 6.496 0 015.897 0l60.581 34.968a5.542 5.542 0 010 9.809l-93.832 54.181a6.138 6.138 0 01-2.955.699v-11.795l-22.205-57.577z" fill="#455A64"/><path d="M426.647 320.288l93.832-54.181c1.631-.932 1.631-2.452 0-3.409l-60.581-34.968a6.5 6.5 0 00-5.897 0l-93.833 54.181c-1.631.932-1.631 2.452 0 3.409l60.569 34.968a6.524 6.524 0 005.91 0z" fill="#455A64"/><path opacity=".1" d="M426.647 320.288l93.832-54.181c1.631-.932 1.631-2.452 0-3.409l-60.581-34.968a6.5 6.5 0 00-5.897 0l-93.833 54.181c-1.631.932-1.631 2.452 0 3.409l60.569 34.968a6.524 6.524 0 005.91 0z" fill="#000"/><path d="M511.174 266.928L452.591 233.1a2.682 2.682 0 00-2.366 0l-80.751 46.592a.716.716 0 00-.346.265.718.718 0 000 .831.722.722 0 00.346.265l58.583 33.828a2.682 2.682 0 002.366 0l80.751-46.592a.72.72 0 00.478-.68.721.721 0 00-.478-.681z" fill="#FAFAFA"/><path d="M393.015 301.357a4.158 4.158 0 003.801 0 1.153 1.153 0 000-2.195 4.16 4.16 0 00-3.801 0 1.153 1.153 0 000 2.195z" fill="#455A64"/><path opacity=".3" d="M393.015 301.357a4.158 4.158 0 003.801 0 1.153 1.153 0 000-2.195 4.16 4.16 0 00-3.801 0 1.153 1.153 0 000 2.195z" fill="#000"/><path d="M486.885 247.164a1.043 1.043 0 00.968 0 .3.3 0 00.14-.108.298.298 0 000-.336.293.293 0 00-.14-.108 1.032 1.032 0 00-.968 0 .286.286 0 00-.139.108.289.289 0 000 .336.292.292 0 00.139.108zm1.496 4.413a2.13 2.13 0 001.925 0 .59.59 0 00.29-.901.59.59 0 00-.29-.214 2.137 2.137 0 00-1.925 0 .588.588 0 000 1.115zm-1.313-1.961c.356-.209.331-.552 0-.773l-6.351-3.678a1.453 1.453 0 00-1.324 0c-.356.196-.343.539 0 .76l6.351 3.678a1.437 1.437 0 001.324.013z" fill="#455A64"/><path opacity=".3" d="M486.884 247.163a1.04 1.04 0 00.969 0 .296.296 0 00.139-.444.289.289 0 00-.139-.107 1.038 1.038 0 00-.969 0 .289.289 0 00-.139.107.296.296 0 00.139.444zm1.496 4.414a2.131 2.131 0 001.925 0 .585.585 0 00.401-.558.587.587 0 00-.401-.558 2.142 2.142 0 00-1.925 0 .593.593 0 00-.401.558.588.588 0 00.401.558zm-1.312-1.961c.356-.209.331-.552 0-.773l-6.351-3.678a1.453 1.453 0 00-1.324 0c-.356.196-.343.539 0 .76l6.351 3.678a1.437 1.437 0 001.324.013z" fill="#000"/><path d="M154.797 131.776l-99.313 57.369a5.54 5.54 0 000 9.808l71.665 41.369a6.524 6.524 0 005.91 0l99.313-57.369a5.554 5.554 0 000-9.809l-71.665-41.368a6.515 6.515 0 00-5.91 0z" fill="#455A64"/><path opacity=".2" d="M154.797 131.776l-99.313 57.369a5.54 5.54 0 000 9.808l71.665 41.369a6.524 6.524 0 005.91 0l99.313-57.369a5.554 5.554 0 000-9.809l-71.665-41.368a6.515 6.515 0 00-5.91 0z" fill="#000"/><path d="M130.055 146.06l-74.62 43.085a5.541 5.541 0 000 9.808l71.665 41.369c.91.481 1.926.726 2.955.711V146.06z" fill="#455A64"/><path opacity=".1" d="M130.055 146.06l-74.62 43.085a5.541 5.541 0 000 9.808l71.665 41.369c.91.481 1.926.726 2.955.711V146.06z" fill="#000"/><path d="M55.434 189.145l99.314-57.369a6.512 6.512 0 015.91 0l71.665 41.368c1.631.944 1.631 2.452 0 3.409l-99.314 57.368a6.512 6.512 0 01-5.909 0l-71.665-41.368c-1.631-.944-1.631-2.477 0-3.408z" fill="#455A64"/><path d="M102.345 130.071L42.266 95.41a5.665 5.665 0 00-.71 2.881l5.137 85.949a6.831 6.831 0 002.979 5.003 6.34 6.34 0 005.714-.098l48.001-27.673-1.042-31.401z" fill="#455A64"/><path opacity=".2" d="M102.345 130.071L42.266 95.41a5.665 5.665 0 00-.71 2.881l5.137 85.949a6.831 6.831 0 002.979 5.003 6.34 6.34 0 005.714-.098l48.001-27.673-1.042-31.401z" fill="#000"/><path d="M66.518 189.145l88.279-50.969a6.528 6.528 0 015.91 0l2.452 1.385c1.631.945 1.631 2.453 0 3.409L74.88 193.939a6.525 6.525 0 01-5.91 0l-2.452-1.386c-1.63-.944-1.63-2.477 0-3.408z" fill="#455A64"/><path opacity=".1" d="M66.518 189.145l88.279-50.969a6.528 6.528 0 015.91 0l2.452 1.385c1.631.945 1.631 2.453 0 3.409L74.88 193.939a6.525 6.525 0 01-5.91 0l-2.452-1.386c-1.63-.944-1.63-2.477 0-3.408z" fill="#000"/><path d="M77.64 195.533l88.278-50.969a6.59 6.59 0 015.91 0l27.329 15.792c1.631.932 1.631 2.452 0 3.408l-88.278 50.969a6.528 6.528 0 01-5.91 0l-27.33-15.792c-1.667-.932-1.667-2.464 0-3.408z" fill="#455A64"/><path opacity=".1" d="M77.64 195.533l88.278-50.969a6.59 6.59 0 015.91 0l27.329 15.792c1.631.932 1.631 2.452 0 3.408l-88.278 50.969a6.528 6.528 0 01-5.91 0l-27.33-15.792c-1.667-.932-1.667-2.464 0-3.408z" fill="#000"/><path d="M149.623 198.733l27.33-15.78a6.523 6.523 0 015.909 0l10.704 6.192c1.631.931 1.631 2.452 0 3.408l-27.329 15.78a6.528 6.528 0 01-5.91 0l-10.716-6.192c-1.619-.932-1.619-2.464.012-3.408z" fill="#455A64"/><path opacity=".1" d="M149.623 198.733l27.33-15.78a6.523 6.523 0 015.909 0l10.704 6.192c1.631.931 1.631 2.452 0 3.408l-27.329 15.78a6.528 6.528 0 01-5.91 0l-10.716-6.192c-1.619-.932-1.619-2.464.012-3.408z" fill="#000"/><path d="M158.083 167.945l2.747-1.593c.122-.074.11-.184 0-.258l-3.495-1.986a.51.51 0 00-.466 0l-2.746 1.581c-.123.074-.098.197 0 .27l3.421 1.974a.534.534 0 00.539.012zm-6.044-6.608l-2.759 1.581c-.11.074-.098.184 0 .27l3.421 1.974a.486.486 0 00.453 0l2.759-1.581c.11-.074.098-.184 0-.27l-3.421-1.974a.486.486 0 00-.453 0zm-8.89 5.125l-4.659 2.697c-.122 0-.11.184 0 .258l3.421 1.974a.538.538 0 00.466 0l4.659-2.698c.111-.061.098-.184 0-.257l-3.421-1.974a.496.496 0 00-.466-.061v.061zm4.905-2.808l-2.759 1.594c-.11.061-.098.184 0 .258l3.458 1.961a.496.496 0 00.453 0l2.759-1.594c.11-.061.098-.184 0-.257l-3.421-1.974a.497.497 0 00-.527-.049l.037.061zm-10.802 6.229l-2.746 1.594c-.123.061-.111.184 0 .257l3.42 1.986a.513.513 0 00.466 0l2.747-1.581c.122-.074.098-.196 0-.27l-3.421-2.023a.547.547 0 00-.503-.025l.037.062zm-4.022 2.329l-2.746 1.582c-.123.073-.11.196 0 .27l3.421 1.974a.564.564 0 00.466 0l2.746-1.594c.123-.074.098-.184 0-.27l-3.421-1.974a.483.483 0 00-.502-.049l.036.061zm13.487 8.019l2.759-1.582c.11-.073.098-.184 0-.27l-3.421-1.974a.497.497 0 00-.453 0l-2.759 1.582c-.11.074-.098.184 0 .27l3.421 1.974a.492.492 0 00.404-.061l.049.061zm-4.021 2.329l2.759-1.593c.11-.062.098-.184 0-.258l-3.421-1.974a.466.466 0 00-.454 0l-2.759 1.594c-.11.061-.098.184 0 .257l3.421 1.974a.498.498 0 00.38-.061l.074.061zm-4.022 2.318l2.759-1.582c.11-.073.098-.196 0-.27l-3.507-2.072a.537.537 0 00-.453 0l-2.759 1.594c-.11.062-.098.184 0 .258l3.421 1.986a.485.485 0 00.49.024l.049.062zm-4.021 2.329l2.758-1.594c.111-.073.098-.183 0-.269l-3.42-1.974a.486.486 0 00-.454 0l-2.759 1.581c-.11.074-.098.184 0 .27l3.421 1.974a.54.54 0 00.405-.049l.049.061zm19.458-16.883l2.746-1.594c.123 0 .111-.184 0-.257l-3.421-1.974a.522.522 0 00-.466 0l-2.746 1.594c-.123.061-.098.184 0 .257l3.421 1.974c.07.021.143.026.215.015a.492.492 0 00.202-.076l.049.061zm-3.372 7.59l6.13-3.544c.123-.073.099-.184 0-.27l-8.312-4.794a.497.497 0 00-.454 0l-3.176 1.827c-.11.074-.098.184 0 .27l4.402 2.538c.135.074.147.196 0 .258l-2.538 1.471c-.11.061-.098.184 0 .257l3.421 1.974a.502.502 0 00.478-.049l.049.062zm-21.604-3.446l-2.746 1.594c-.123.061-.111.184 0 .258l3.421 1.974a.535.535 0 00.465 0l2.747-1.594c.123-.062.098-.184 0-.258l-3.421-1.974a.51.51 0 00-.466 0zm-4.021 2.33l-2.747 1.581c-.122.074-.11.184 0 .27l3.421 1.974a.51.51 0 00.466 0l2.746-1.581c.123-.074.098-.184 0-.27l-3.42-1.974a.488.488 0 00-.43 0h-.036zm-19.152 26.582a.497.497 0 00.454 0l2.746-1.582c.123-.074.111-.184 0-.27l-3.421-1.974a.523.523 0 00-.466 0l-2.746 1.582c-.123.073-.098.184 0 .27l3.433 1.974zm-13.021-8.007l-2.759 1.582c-.11.073-.098.184 0 .27l3.421 1.974a.496.496 0 00.454 0l2.758-1.582c.11-.074.099-.184 0-.27l-3.42-1.974a.5.5 0 00-.417 0h-.037zm7.075 5.787a.495.495 0 00.453 0l2.747-1.594c.122 0 .11-.184 0-.257l-3.433-1.974a.497.497 0 00-.454 0l-2.746 1.594c-.123.061-.11.184 0 .257l3.433 1.974zm13.401 3.838l2.758-1.594c.111-.061.099-.184 0-.257l-3.42-1.974a.5.5 0 00-.454 0l-2.759 1.594c-.11.061-.098.183 0 .257l3.421 1.974a.5.5 0 00.491 0h-.037zm-4.476 2.305a.489.489 0 00.454 0l2.759-1.582c.11-.073.098-.196 0-.269l-3.421-1.974a.537.537 0 00-.454 0l-2.758 1.594c-.111.073-.098.183 0 .257l3.42 1.974zm-11.978-14.259l-2.76 1.594c-.11.061-.097.183 0 .257l3.422 1.986a.485.485 0 00.453 0l2.759-1.594c.11 0 .098-.184 0-.257l-3.42-1.974a.53.53 0 00-.418-.012h-.036zm20.107-11.612l-2.758 1.594c-.111.062-.098.184 0 .258l3.421 1.986a.482.482 0 00.453 0l2.759-1.582c.11-.073.098-.196 0-.269l-3.421-1.974a.555.555 0 00-.417-.013h-.037zm-16.049 9.331l-2.759 1.594c-.11 0-.098.184 0 .257l3.421 1.974a.497.497 0 00.454 0l2.758-1.593c.111-.062.098-.184 0-.258l-3.42-1.974a.498.498 0 00-.454 0zm20.108-11.611l-2.747 1.594c-.122 0-.11.184 0 .257l3.421 1.974a.5.5 0 00.454 0l2.759-1.594c.11-.061.098-.183 0-.257l-3.421-1.974a.465.465 0 00-.466-.037v.037zm-8.043 4.647l-2.759 1.581c-.11.074-.098.184 0 .27l3.421 1.974a.537.537 0 00.453 0l2.759-1.594c.11-.073.098-.184 0-.269l-3.421-1.974a.477.477 0 00-.223-.068.48.48 0 00-.23.043v.037zm-4.022 2.317l-2.759 1.594c-.11.061-.098.184 0 .258l3.421 1.974a.512.512 0 00.454 0l2.759-1.594c.11-.062.098-.184 0-.258l-3.421-1.986a.507.507 0 00-.454-.025v.037zm-4.021 2.33l-2.759 1.581c-.111.074-.098.184 0 .27l3.421 1.974a.482.482 0 00.453 0l2.759-1.582c.11-.073.098-.183 0-.269l-3.421-1.974a.477.477 0 00-.222-.074.48.48 0 00-.231.037v.037zm21.517 3.371l2.747-1.581c.122-.074.11-.184 0-.27l-3.421-1.974a.498.498 0 00-.454 0l-2.783 1.545c-.11.074-.098.184 0 .27l3.421 1.974a.49.49 0 00.49 0v.036zm34.331-35.642l-2.759 1.594c-.11.061-.098.184 0 .257l3.421 1.974a.496.496 0 00.454 0l2.758-1.594c.111 0 .099-.183 0-.257l-3.42-1.974a.467.467 0 00-.417-.037l-.037.037zm-4.904 2.808l-2.759 1.594c-.11.061-.098.184 0 .257l3.421 1.974a.496.496 0 00.453 0l2.759-1.594c.11 0 .098-.184 0-.257l-3.421-1.974a.498.498 0 00-.331-.037l-.122.037zm8.889-5.125l-2.636 1.545c-.111.073-.098.183 0 .269l3.421 1.974a.482.482 0 00.453 0l2.759-1.581c.11-.074.098-.184 0-.27l-3.421-1.974a.494.494 0 00-.503 0l-.073.037zm-20.206 21.824l2.759-1.594c.11-.073.098-.184 0-.27l-3.421-1.974a.497.497 0 00-.454 0l-2.759 1.582c-.11.074-.098.196 0 .27l3.421 1.974a.538.538 0 00.527-.025l-.073.037zm24.755-24.154a.512.512 0 00-.454 0l-2.759 1.594c-.11 0-.098.184 0 .257l3.421 1.974a.497.497 0 00.454 0l2.758-1.593c.111-.062.099-.184 0-.258l-3.42-1.974zm-38.843 37.948l2.759-1.594c.11 0 .098-.184 0-.258l-3.421-1.974a.509.509 0 00-.454 0l-2.783 1.557c-.11.062-.098.184 0 .258l3.421 1.974a.506.506 0 00.478.024v.013zm49.326-28.482l2.746-1.582c.123-.074.111-.184 0-.27l-3.421-1.974a.51.51 0 00-.466 0l-2.746 1.582c-.123.073-.098.184 0 .27l3.384 1.949a.49.49 0 00.503.012v.013zm-8.914-.491l2.759-1.594c.11-.073.098-.184 0-.27l-3.421-1.974a.497.497 0 00-.454 0l-2.734 1.558c-.11.073-.098.183 0 .269l3.421 1.974a.55.55 0 00.429.025v.012zm3.323-6.13a.54.54 0 00-.454 0l-2.759 1.594c-.11.061-.098.183 0 .257l3.421 1.986a.486.486 0 00.454 0l2.759-1.581c.11-.074.098-.197 0-.27l-3.421-1.986zm.846-.491l8.313 4.794a.495.495 0 00.453 0l2.747-1.594c.122-.061.11-.184 0-.257l-8.313-4.794a.466.466 0 00-.454 0l-2.759 1.594c-.134.024-.122.147.013.22v.037zm-9.343 5.113l-2.759 1.594c-.11 0-.098.184 0 .257l3.421 1.974a.496.496 0 00.454 0l2.758-1.594c.111-.061.098-.183 0-.257l-3.42-1.974a.506.506 0 00-.454-.037v.037zm-30.272 17.484l-2.734 1.545c-.111.074-.099.184 0 .27l3.42 1.974a.497.497 0 00.454 0l2.759-1.582c.11-.074.098-.184 0-.27l-3.421-1.974a.49.49 0 00-.478 0v.037zm39.884-13.156a.502.502 0 00.454 0l2.747-1.594c.122-.061.11-.184 0-.257l-3.421-1.974a.489.489 0 00-.466 0l-2.747 1.594c-.122 0-.098.184 0 .257l3.433 1.974zm-35.863 10.826l-2.758 1.594c-.111.062-.099.184 0 .258l3.42 1.974a.512.512 0 00.454 0l2.759-1.594c.11 0 .098-.184 0-.258l-3.421-1.974a.502.502 0 00-.454-.036v.036zm-29.549 26.975a.512.512 0 00.454 0l2.747-1.594c.122-.062.11-.184 0-.258l-3.421-1.974a.524.524 0 00-.466 0l-2.747 1.594c-.122.061-.098.184 0 .258l3.433 1.974zm-6.633-6.106l-2.746 1.581c-.123.074-.098.184 0 .27l3.421 1.974a.482.482 0 00.453 0l2.747-1.582c.122-.073.11-.184 0-.269l-3.421-1.974a.511.511 0 00-.454 0zm11.133 3.678l2.747-1.582c.122-.073.11-.184 0-.27l-3.421-1.974a.522.522 0 00-.466 0l-2.747 1.582c-.122.074-.098.184 0 .27l3.421 1.974a.489.489 0 00.442.049l.024-.049zm4.022-2.317l2.746-1.582c.123-.074.111-.196 0-.27l-3.421-1.974a.564.564 0 00-.465 0l-2.747 1.594c-.123.061-.098.184 0 .258l3.421 1.986a.498.498 0 00.441.037l.025-.049zm4.021-2.318l2.747-1.594c.122-.061.11-.184 0-.257l-3.421-1.986a.51.51 0 00-.466 0l-2.746 1.593c-.123.062-.098.184 0 .258l3.42 1.974a.53.53 0 00.442.061l.024-.049zm-15.154-1.422l-2.747 1.594c-.122 0-.098.184 0 .257l3.421 1.987a.497.497 0 00.454 0l2.746-1.582c.123-.074.111-.196 0-.27l-3.42-1.974a.575.575 0 00-.479.037l.025-.049zm4.021-2.317l-2.771 1.667c-.122.061-.098.184 0 .258l3.421 1.974a.512.512 0 00.454 0l2.746-1.594c.123-.062.111-.184 0-.258l-3.42-1.974a.492.492 0 00-.454-.024l.024-.049zm16.099-9.294l-2.759 1.594c-.11 0-.098.184 0 .257l3.421 1.987a.497.497 0 00.454 0l2.759-1.582c.11-.074.098-.196 0-.27l-3.495-1.913a.539.539 0 00-.404-.024l.024-.049zm-4.022 2.329l-2.758 1.582c-.111.074-.098.196 0 .27l3.421 1.974a.536.536 0 00.453 0l2.747-1.594c.122-.074.11-.184 0-.27l-3.433-1.913a.497.497 0 00-.454 0l.024-.049zm8.044-4.646l-2.759 1.593c-.11.062-.098.184 0 .258l3.421 1.974a.496.496 0 00.453 0l2.759-1.594c.11-.061.098-.184 0-.257l-3.421-1.974a.501.501 0 00-.417.049l-.036-.049zm-16.099 9.293l-2.746 1.582c-.123.074-.098.184 0 .27l3.42 1.974a.497.497 0 00.454 0l2.746-1.582c.123-.073.111-.184 0-.27l-3.42-1.974a.514.514 0 00-.478.049l.024-.049zm4.022-2.329l-2.747 1.594c-.122.061-.098.184 0 .257l3.421 1.974a.496.496 0 00.454 0l2.746-1.594c.123 0 .11-.184 0-.257l-3.421-1.974a.513.513 0 00-.245-.033.514.514 0 00-.233.082l.025-.049zm-1.974 16.944l2.758-1.581c.111-.074.098-.184 0-.27l-3.42-1.974a.489.489 0 00-.454 0l-2.759 1.582c-.11.073-.098.184 0 .269l3.421 1.974a.487.487 0 00.429.049l.025-.049zm-24.645-2.979l-3.42-1.974a.497.497 0 00-.454 0l-2.759 1.68c-.11.061-.098.184 0 .257l3.42 1.974a.497.497 0 00.454 0l2.76-1.594c.122-.098.11-.22-.025-.294l.024-.049zm6.376 1.962l-3.433-1.974a.486.486 0 00-.454 0l-4.23 2.452c-.123.061-.098.184 0 .257l3.42 1.987a.496.496 0 00.455 0l4.23-2.453c.134-.073.122-.073-.013-.22l.025-.049zm-11.673-5.763l-3.42-1.974a.497.497 0 00-.454 0l-3.396 1.95c-.11.073-.098.183 0 .269l3.482 2.036a.496.496 0 00.454 0l3.396-1.95c.061-.086.049-.196-.086-.282l.024-.049zm2.6-1.496a.497.497 0 00.453 0l2.747-1.594c.123-.061.11-.184 0-.257l-3.433-1.974a.497.497 0 00-.454 0l-2.746 1.594c-.123.061-.11.184 0 .257l3.433 1.974zm15.019 9.478l-3.433-1.986a.486.486 0 00-.453 0l-5.26 3.089c-.123.074-.11.184 0 .27l3.42 1.974a.51.51 0 00.466 0l5.285-3.053c.098-.049.086-.171-.049-.245l.024-.049zm2.98 3.923l-3.421-1.986a.497.497 0 00-.454 0l-3.396 1.95c-.11.073-.098.184 0 .269l3.421 1.974a.486.486 0 00.454 0l3.396-1.949c.135-.074.135-.074-.025-.209l.025-.049zm11.905-30.652a.54.54 0 00.454 0l2.746-1.594c.123 0 .111-.184 0-.257l-3.421-1.987a.522.522 0 00-.465 0l-2.747 1.582c-.123.074-.098.196 0 .27l3.433 1.986zm-8.092 4.684a.497.497 0 00.454 0l2.746-1.582c.123-.073.11-.184 0-.27l-3.433-1.974a.497.497 0 00-.454 0l-2.746 1.582c-.123.074-.11.184 0 .27l3.433 1.974zm-17.84 10.299a.497.497 0 00.454 0l2.746-1.582c.123-.073.11-.184 0-.269l-3.42-1.913a.51.51 0 00-.466 0l-2.747 1.582c-.122.073-.098.183 0 .269l3.433 1.913zm21.862-12.629a.46.46 0 00.453 0l2.747-1.594c.122-.061.11-.184 0-.257l-3.433-1.974a.5.5 0 00-.454 0l-2.747 1.594c-.122.061-.11.184 0 .257l3.434 1.974zm-8.056 4.647a.524.524 0 00.466 0l2.746-1.594c.123-.061.099-.184 0-.257l-3.42-1.974a.5.5 0 00-.454 0l-2.746 1.594c-.123 0-.111.184 0 .257l3.408 1.974zm2.452 24.056a.52.52 0 00-.466 0l-4.23 2.452c-.11 0-.098.184 0 .258l3.421 1.974a.54.54 0 00.454 0l4.23-2.452c.122-.062.11-.184 0-.258l-3.409-1.974zm-8.227-20.721a.54.54 0 00.454 0l2.746-1.594c.123-.073.111-.184 0-.257l-3.421-1.987a.52.52 0 00-.465 0l-2.747 1.582c-.122.074-.098.196 0 .27l3.433 1.986zm-4.021 2.317a.497.497 0 00.453 0l2.747-1.594c.122 0 .11-.183 0-.257l-3.421-1.974a.523.523 0 00-.466 0l-2.746 1.594c-.123.061-.098.184 0 .257l3.433 1.974zm86.782-24.62a.536.536 0 00-.453 0l-6.78 3.912c-.111.073-.099.184 0 .269l3.42 1.974a.54.54 0 00.454 0l6.78-3.911c.111-.073.098-.196 0-.27l-3.421-1.974zm-8.889 5.138a.496.496 0 00-.453 0l-2.759 1.594c-.11.061-.098.184 0 .257l3.421 1.974a.496.496 0 00.453 0l2.759-1.594c.11 0 .098-.184 0-.257l-3.421-1.974zm-54.573 30.088l2.759-1.594c.11-.061.098-.184 0-.257l-3.421-1.974a.5.5 0 00-.454 0l-2.759 1.594c-.11.061-.098.184 0 .257l3.421 1.974a.464.464 0 00.491 0h-.037zm46.53-25.454a.497.497 0 00-.454 0l-2.758 1.582c-.111.074-.098.196 0 .27l3.421 1.974a.536.536 0 00.453 0l2.759-1.594c.11 0 .098-.184 0-.258l-3.421-1.974zm20.954-12.089a.46.46 0 00-.454 0l-2.758 1.594c-.111.061-.098.184 0 .258l3.482 1.949a.496.496 0 00.453 0l2.759-1.594c.11-.061.098-.184 0-.257l-3.482-1.95zm7.442-.355l-8.276-4.794a.537.537 0 00-.453 0l-2.747 1.593c-.122.062-.11.184 0 .258l8.313 4.806a.486.486 0 00.454 0l2.758-1.581c.135-.086.135-.172-.012-.282h-.037zm-43.428 21.125a.497.497 0 00-.453 0l-3.397 1.95c-.11.073-.098.184 0 .269l3.421 1.974a.486.486 0 00.454 0l3.396-1.949c.11-.074.098-.184 0-.27l-3.421-1.974zm10.165-5.861a.541.541 0 00-.466 0l-4.23 2.453c-.111.073-.099.196 0 .269l3.42 1.974a.54.54 0 00.454 0l4.23-2.452c.123-.061.11-.184 0-.257l-3.408-1.987zm-19.483 11.244a.496.496 0 00-.454 0l-22.633 13.058c-.123.061-.111.184 0 .257l3.42 1.974a.527.527 0 00.466 0l22.646-13.082c.123 0 .098-.184 0-.258l-3.445-1.949zm-23.921 13.806a.486.486 0 00-.454 0l-3.384 1.949c-.122.074-.11.184 0 .27l3.433 1.974a.497.497 0 00.454 0l3.384-1.95c.123-.073.098-.184 0-.27l-3.433-1.973zm28.58-16.504a.497.497 0 00-.454 0l-3.384 1.95c-.122.073-.11.184 0 .27l3.421 1.974a.567.567 0 00.466 0l3.384-1.962c.11 0 .098-.184 0-.258l-3.433-1.974zm-33.203 19.213a.493.493 0 00-.453 0l-3.384 1.95c-.123.073-.098.184 0 .269l3.421 1.974a.536.536 0 00.453 0l3.384-1.961c.123-.062.111-.184 0-.258l-3.421-1.974zm42.558-24.522a.509.509 0 00-.454 0l-3.396 1.962c-.11.061-.098.184 0 .258l3.421 1.974a.509.509 0 00.454 0l3.396-1.962c.11-.062.098-.184 0-.258l-3.421-1.974zm14.394-8.374a.536.536 0 00-.453 0l-2.759 1.594c-.11.074-.098.184 0 .257l3.421 1.987a.497.497 0 00.454 0l2.758-1.582c.111-.073.098-.196 0-.27l-3.421-1.986zm8.73-6.449l2.747-1.594c.122-.061.098-.184 0-.258l-3.421-1.974a.509.509 0 00-.454 0l-2.746 1.594c-.123.062-.111.184 0 .258l3.421 1.974a.519.519 0 00.453 0zm-18.673-.515l2.746-1.582c.123-.073.111-.196 0-.27l-3.42-1.974a.57.57 0 00-.466 0l-2.747 1.594c-.122.074-.098.184 0 .258l3.421 1.986a.49.49 0 00.466-.012zm-8.448 16.16l8.043-4.647c.111 0 .098-.184 0-.258l-3.421-1.986a.493.493 0 00-.453 0l-8.043 4.647c-.123 0-.111.184 0 .258l3.42 1.974a.536.536 0 00.454.012zm22.609-13.34a.51.51 0 00.466 0l2.747-1.582c.122-.073.098-.184 0-.27l-3.421-1.974a.497.497 0 00-.454 0l-2.759 1.631c-.122.074-.11.184 0 .27l3.421 1.925zm-4.426-2.808l2.746-1.582c.123-.073.111-.196 0-.269l-3.433-1.974a.536.536 0 00-.453 0l-2.747 1.594c-.122.061-.11.184 0 .257l3.421 1.986a.486.486 0 00.491-.012h-.025zm-22.204 18.465l2.746-1.582c.123-.073.098-.183 0-.269l-3.421-1.974a.537.537 0 00-.454 0l-2.746 1.594c-.123.073-.11.184 0 .269l3.421 1.974a.513.513 0 00.478-.012h-.024zm17.766-10.495a.47.47 0 00.453 0l2.759-1.594c.11-.061.098-.184 0-.258l-3.47-1.986a.509.509 0 00-.454 0l-2.758 1.594c-.111 0-.098.184 0 .257l3.47 1.987zm-37.862 22.069l2.759-1.581c.11-.074.098-.184 0-.27l-3.421-1.974a.54.54 0 00-.454 0l-2.759 1.594c-.11.073-.098.184 0 .27l3.47 1.961a.491.491 0 00.405 0zm4.021-2.317l2.759-1.594c.11-.061.098-.184 0-.257l-3.506-1.962a.502.502 0 00-.454 0l-2.759 1.594c-.11 0-.098.184 0 .257l3.421 1.974a.5.5 0 00.539.025v-.037zm-8.043 4.647l2.759-1.594c.11 0 .098-.184 0-.257l-3.421-1.987a.497.497 0 00-.453 0l-2.759 1.582c-.111.074-.098.196 0 .27l3.421 1.974a.543.543 0 00.453.049v-.037zm16.099-9.294l2.746-1.594c.111-.061.098-.184 0-.257l-3.42-1.974a.502.502 0 00-.454 0l-2.747 1.594c-.122.061-.11.184 0 .257l3.421 1.974a.484.484 0 00.454.037v-.037zm-4.034 2.318l2.759-1.582c.11-.074.098-.184 0-.27l-3.421-1.974a.497.497 0 00-.454 0l-2.758 1.582c-.111.073-.099.184 0 .27l3.42 1.974a.494.494 0 00.454.036v-.036zm8.055-4.635l2.747-1.594c.122 0 .098-.184 0-.258l-3.421-1.986a.497.497 0 00-.454 0l-2.746 1.582c-.123.073-.11.196 0 .27l3.421 1.974a.559.559 0 00.453.049v-.037zm16.847-35.25a.497.497 0 00.454 0l2.758-1.582c.111-.074.098-.184 0-.27l-.907-.527a.51.51 0 00-.466 0l-2.746 1.594c-.123.061-.098.184 0 .258l.907.527zm-19.703 12.825a.493.493 0 00.453 0l2.759-1.582c.11-.074.098-.184 0-.27l-3.421-1.974a.497.497 0 00-.453 0l-2.759 1.582c-.111.073-.098.184 0 .27l3.421 1.974zm8.043-4.647a.537.537 0 00.453 0l2.759-1.594c.111 0 .098-.184 0-.258l-3.421-1.986a.494.494 0 00-.453 0l-2.759 1.582c-.11.073-.098.196 0 .269l3.421 1.987zm-12.948 7.479a.54.54 0 00.454 0l2.746-1.594c.123 0 .098-.184 0-.257l-3.42-1.987a.497.497 0 00-.454 0l-2.747 1.582c-.122.073-.11.196 0 .27l3.421 1.986zm8.926-5.162a.466.466 0 00.454 0l2.722-1.52c.11-.062.098-.184 0-.258l-3.421-1.974a.509.509 0 00-.454 0l-2.758 1.594c-.111.061-.098.184 0 .258l3.457 1.9zm-16.981 9.809a.523.523 0 00.466 0l2.746-1.582c.123-.073.098-.184 0-.27l-3.421-1.974a.493.493 0 00-.453 0l-2.747 1.582c-.122.074-.11.184 0 .27l3.409 1.974zm4.021-2.317a.525.525 0 00.466 0l2.747-1.594c.122-.062.098-.184 0-.258l-3.421-1.974a.509.509 0 00-.454 0l-2.746 1.594c-.123 0-.11.184 0 .258l3.408 1.974zm20.599-13.34a.497.497 0 00.453 0l2.747-1.582c.122-.074.11-.196 0-.27l-.907-.527a.513.513 0 00-.466 0l-2.747 1.582c-.122.073-.098.184 0 .269l.92.528zm12.065-6.977a.46.46 0 00.453 0l2.759-1.594c.11-.061.098-.184 0-.257l-.907-.527a.513.513 0 00-.466 0l-2.747 1.581c-.122.074-.098.184 0 .27l.908.527zm7.184 4.157a.544.544 0 00.454 0l2.759-1.594c.11-.074.098-.184 0-.27l-3.421-1.974a.486.486 0 00-.454 0l-2.758 1.582c-.111.073-.098.184 0 .269l3.42 1.987zm11.109 10.826l2.746-1.594c.123-.073.098-.184 0-.27l-3.421-1.974a.493.493 0 00-.453 0l-2.747 1.582c-.122.074-.11.184 0 .27l3.384 1.986a.568.568 0 00.491 0zm-26.337-10.324a.5.5 0 00.454 0l2.759-1.594c.11 0 .098-.184 0-.257l-.908-.527a.522.522 0 00-.465 0l-2.747 1.594c-.123 0-.098.184 0 .257l.907.527zM125.8 173.769a.525.525 0 00.466 0l2.747-1.594c.122 0 .098-.183 0-.257l-3.421-1.974a.5.5 0 00-.454 0l-2.746 1.594c-.123 0-.111.184 0 .257l3.408 1.974z" fill="#393939"/><path d="M49.721 189.243a6.831 6.831 0 01-2.98-5.003l-5.136-85.949a6.13 6.13 0 012.93-5.248l99.313-57.368a6.269 6.269 0 015.493 0 6.878 6.878 0 012.98 5.014l5.137 85.949a6.132 6.132 0 01-2.759 5.113L55.386 189.12a6.341 6.341 0 01-5.665.123z" fill="#455A64"/><path opacity=".4" d="M49.721 189.243a6.831 6.831 0 01-2.98-5.003l-5.136-85.949a6.13 6.13 0 012.93-5.248l99.313-57.368a6.269 6.269 0 015.493 0 6.878 6.878 0 012.98 5.014l5.137 85.949a6.132 6.132 0 01-2.759 5.113L55.386 189.12a6.341 6.341 0 01-5.665.123z" fill="#fff"/><path d="M49.893 96.354l99.313-57.369a1.937 1.937 0 013.163 1.704l5.138 85.949a6.122 6.122 0 01-.736 2.904 6.113 6.113 0 01-2.023 2.209L55.435 189.12a1.941 1.941 0 01-2.147.203 1.937 1.937 0 01-1.005-1.907l-5.137-85.962a6.033 6.033 0 012.747-5.1z" fill="#455A64"/><path d="M52.247 98.426l95.377-55.064a1.546 1.546 0 012.526 1.361l4.475 74.927a4.897 4.897 0 01-2.194 4.083l-94.642 54.659a1.567 1.567 0 01-1.727.164 1.569 1.569 0 01-.824-1.525l-5.161-74.547a4.78 4.78 0 012.17-4.058z" fill="#fff"/><path d="M318.444 184.449l12.715-7.357a6.834 6.834 0 003.053-6.706l-4.684-24.351 5.542-3.2 27.685 22.401c.368 1.95 9.061 18.919 6.401 28.323-2.355 8.288-15.94 9.183-17.485 10.054l-33.227-12.788v-6.376z" fill="#455A64"/><path d="M351.671 203.637l12.703-7.356a6.819 6.819 0 003.065-6.707l-4.684-24.338 5.53-3.2 5.358 27.844a10.294 10.294 0 01-.826 5.737 10.3 10.3 0 01-3.796 4.379l-17.35 10.017v-6.376z" fill="#455A64"/><path opacity=".3" d="M351.671 203.637l12.703-7.356a6.819 6.819 0 003.065-6.707l-4.684-24.338 5.53-3.2 5.358 27.844a10.294 10.294 0 01-.826 5.737 10.3 10.3 0 01-3.796 4.379l-17.35 10.017v-6.376z" fill="#000"/><path d="M318.444 184.449l33.227 19.188v6.401l-33.227-19.189v-6.4z" fill="#455A64"/><path opacity=".4" d="M318.444 184.449l33.227 19.188v6.401l-33.227-19.189v-6.4z" fill="#fff"/><path d="M287.951 22.911a6.332 6.332 0 00-2.771 5.015v101.937a6.55 6.55 0 002.955 5.113l127.06 73.357a5.544 5.544 0 008.497-4.904V101.491a6.52 6.52 0 00-2.955-5.112L293.677 23.02a6.326 6.326 0 00-5.726-.11z" fill="#455A64"/><path d="M415.195 208.333a5.543 5.543 0 008.497-4.904V101.492a6.062 6.062 0 00-.858-2.906l-98.873 57.074 91.234 52.673z" fill="#455A64"/><path opacity=".2" d="M415.489 208.112a5.54 5.54 0 005.701.086 5.544 5.544 0 002.759-4.99l-.551-101.95a6.134 6.134 0 00-.883-2.905l-98.566 57.626 91.54 52.133z" fill="#22343D"/><path d="M285.18 129.863V27.926c0-1.888 1.324-2.648 2.955-1.717l127.06 73.37a6.517 6.517 0 012.955 5.113v101.937c0 1.888-1.324 2.648-2.955 1.704l-127.06-73.357a6.55 6.55 0 01-2.955-5.113z" fill="#455A64"/><path opacity=".4" d="M285.18 129.863V27.926c0-1.888 1.324-2.648 2.955-1.717l127.06 73.37a6.517 6.517 0 012.955 5.113v101.937c0 1.888-1.324 2.648-2.955 1.704l-127.06-73.357a6.55 6.55 0 01-2.955-5.113z" fill="#22343D"/><path d="M290.318 30.672l122.707 70.844a5.234 5.234 0 012.354 4.095v90.498c0 1.508-1.054 2.121-2.354 1.373l-122.707-70.843a5.226 5.226 0 01-2.367-4.095v-90.51c0-1.509 1.055-2.122 2.367-1.362z" fill="#fff"/><path d="M271.154 179.729l-27.342 15.779a5.542 5.542 0 000 9.809l88.278 50.969a6.527 6.527 0 005.91 0l27.342-15.78a5.554 5.554 0 000-9.809l-88.279-50.968a6.485 6.485 0 00-5.909 0z" fill="#37474F"/><path d="M335.045 256.972a5.946 5.946 0 002.955-.711l27.342-15.78a5.552 5.552 0 000-9.808l-2.844-1.643h-27.453v27.942z" fill="#263238"/><path d="M365.354 230.722l-88.278-50.969a6.528 6.528 0 00-5.91 0l-27.342 15.792c-1.631.932-1.631 2.452 0 3.409l88.279 50.968a6.565 6.565 0 005.897 0l27.342-15.792c1.655-.932 1.655-2.464.012-3.408z" fill="#455A64"/><path d="M352.763 228.196a.544.544 0 01-.454 0l-2.71-1.57c-.11 0-.098-.183 0-.257l.895-.515a.5.5 0 01.454 0l2.71 1.569c.11.062.098.184 0 .258l-.895.515zm-3.961-2.281a.537.537 0 01-.454 0l-2.709-1.569c-.111 0-.098-.184 0-.257l.895-.515a.51.51 0 01.441 0l2.722 1.569c.111.061.098.184 0 .257l-.895.515zm7.921 4.574a.473.473 0 01-.442 0l-2.709-1.557c-.123-.074-.111-.184 0-.27l.895-.515a.486.486 0 01.454 0l2.709 1.557c.123.074.111.184 0 .27l-.907.515zm3.972 2.292a.538.538 0 01-.454 0l-2.709-1.557c-.123-.061-.098-.184 0-.257l.895-.515a.51.51 0 01.441 0l2.722 1.569c.11.074.098.184 0 .258l-.895.502zm-38.916-18.06l-3.384 1.937c-.123.086-.147.197 0 .27l4.585 2.648a.544.544 0 00.454 0l3.372-1.949c.135-.074.147-.184 0-.257l-4.598-2.649a.486.486 0 00-.429 0zm-51.545-29.757l-3.371 1.949c-.135.074-.147.197 0 .258l2.709 1.569a.5.5 0 00.454 0l3.372-1.949c.135-.074.147-.184 0-.258l-2.71-1.557a.493.493 0 00-.454-.012zm3.973 2.293l-3.372 1.949c-.135.074-.147.184 0 .258l2.709 1.569a.544.544 0 00.454 0l3.372-1.949c.135-.074.147-.197 0-.258l-2.722-1.569a.51.51 0 00-.441 0zm-7.271 10.863l3.371-1.95c.135-.085.148-.196 0-.257l-2.623-1.619a.473.473 0 00-.442 0l-3.372 1.95c-.134.074-.147.196 0 .257l2.588 1.619a.487.487 0 00.478 0zm3.96 2.231l3.372-1.949c.135-.074.147-.184 0-.258l-2.71-1.557a.497.497 0 00-.453 0l-3.372 1.95c-.135.073-.147.196 0 .257l2.722 1.57a.472.472 0 00.441-.013zm3.973 2.293l3.371-1.949c.123-.074.148-.196 0-.258l-2.709-1.569a.5.5 0 00-.454 0l-3.372 1.949c-.134.074-.147.184 0 .258l2.71 1.557a.493.493 0 00.454.012zm3.96 2.293l3.372-1.95c.135-.085.147-.196 0-.257l-2.722-1.569a.462.462 0 00-.441 0l-3.372 1.949c-.135.074-.147.196 0 .258l2.71 1.569a.494.494 0 00.453 0zm-.662-15.4l-3.372 1.95c-.135.086-.147.196 0 .257l2.722 1.57a.473.473 0 00.442 0l3.371-1.95c.135-.073.147-.196 0-.257l-2.709-1.57a.54.54 0 00-.454 0zm3.96 2.293l-3.408 1.95c-.135.073-.148.196 0 .257l2.709 1.569a.5.5 0 00.454 0l3.372-1.949c.122-.074.147-.184 0-.258l-2.71-1.557a.495.495 0 00-.417-.012zm27.82 27.133c.135-.073.148-.184 0-.257l-2.709-1.557a.486.486 0 00-.454 0l-3.372 1.949c-.134.074-.147.196 0 .258l2.71 1.569a.496.496 0 00.454 0l3.371-1.962zm3.899-8.827l-3.372 1.949c-.134.086-.147.196 0 .258l2.71 1.569a.486.486 0 00.454 0l3.372-1.949c.134-.074.147-.197 0-.258l-2.735-1.582a.497.497 0 00-.429.013zm-18.084 10.139l3.371-1.949c.135-.074.148-.196 0-.258l-2.672-1.557a.515.515 0 00-.454 0l-3.372 1.937c-.135.086-.147.197 0 .27l2.722 1.557a.457.457 0 00.405 0zm7.344.344c.122-.086.147-.196 0-.27l-2.71-1.557a.486.486 0 00-.454 0l-3.371 1.949c-.135.074-.147.196 0 .258l2.709 1.569a.5.5 0 00.454 0l3.372-1.949zm6.78-12.764l-3.372 1.95c-.135.073-.159.183 0 .257l2.71 1.557a.486.486 0 00.454 0l3.371-1.949c.135-.074.148-.197 0-.258l-2.709-1.569a.516.516 0 00-.454.012zm-19.826-11.452l-3.372 1.95c-.135.086-.147.196 0 .257l2.722 1.57a.473.473 0 00.442 0l3.371-1.95c.135-.073.148-.196 0-.257l-2.709-1.57a.54.54 0 00-.454 0zm15.854 9.159l-3.372 1.95c-.135.073-.147.196 0 .257l2.71 1.57a.48.48 0 00.441 0l3.384-1.938c.123-.085.147-.196 0-.269l-2.71-1.558a.492.492 0 00-.453-.012zm-19.839-11.439l-3.372 1.949c-.134.074-.147.184 0 .258l2.71 1.557a.498.498 0 00.454 0l3.372-1.95c.134-.073.147-.196 0-.257l-2.722-1.569a.515.515 0 00-.442.012zm7.946 4.573l-3.372 1.95c-.135.073-.147.196 0 .257l2.709 1.569a.475.475 0 00.442 0l3.384-1.949c.122-.074.147-.184 0-.258l-2.71-1.557a.492.492 0 00-.453-.012zm3.972 2.293l-3.335 1.949c-.135.074-.147.184 0 .258l2.71 1.557a.486.486 0 00.453 0l3.372-1.949c.135-.074.147-.197 0-.258l-2.722-1.569a.513.513 0 00-.478.012zm4.022 2.281l-3.372 1.949c-.135.086-.147.196 0 .257l2.71 1.57a.493.493 0 00.453 0l3.372-1.95c.135-.073.147-.196 0-.257l-2.71-1.569a.538.538 0 00-.453 0zm-15.253 6.24l3.371-1.949c.123-.074.148-.196 0-.258l-2.709-1.569a.5.5 0 00-.454 0l-3.347 1.974c-.135.073-.147.184 0 .257l2.71 1.557a.484.484 0 00.429-.012zm-3.973-2.292l3.372-1.95c.135-.074.147-.184 0-.257l-2.709-1.558a.497.497 0 00-.454 0l-3.335 2.023c-.135.074-.147.197 0 .258l2.722 1.569a.474.474 0 00.404-.085zm-7.687-13.868l-3.372 1.938c-.135.085-.147.196 0 .269l2.71 1.557a.482.482 0 00.453 0l3.372-1.949c.123-.074.147-.196 0-.258l-2.71-1.569a.498.498 0 00-.453.012zm-3.96-2.292l-3.372 1.949c-.135.074-.147.184 0 .258l2.722 1.569a.51.51 0 00.441 0l3.372-1.95c.135-.073.147-.196 0-.257l-2.71-1.569a.537.537 0 00-.453 0zm34.845 25.662c.135-.074.147-.196 0-.258l-2.71-1.569a.46.46 0 00-.441 0l-3.372 1.949c-.135.074-.159.197 0 .258l2.71 1.569a.486.486 0 00.453 0l3.36-1.949zm-7.344-.344l3.371-1.949c.123-.074.148-.196 0-.258l-2.709-1.569a.5.5 0 00-.454 0l-3.372 1.949c-.135.074-.147.184 0 .258l2.71 1.557a.459.459 0 00.454.012zm-3.985-2.317l3.372-1.949c.135-.074.147-.184 0-.258l-2.649-1.471a.482.482 0 00-.453 0l-3.372 1.949c-.135.074-.147.196 0 .258l2.71 1.569a.494.494 0 00.392-.098zm-3.936-2.256l3.372-1.949c.135-.086.147-.197 0-.258l-2.722-1.569a.462.462 0 00-.441 0l-3.372 1.949c-.135.086-.147.196 0 .258l2.71 1.569a.482.482 0 00.453 0zm8.166-4.72l-3.372 1.937c-.135.086-.147.196 0 .27l2.71 1.557a.466.466 0 00.441 0l3.384-1.95c.123-.073.147-.196 0-.257l-2.71-1.57a.505.505 0 00-.453.013zm-15.853-9.159l-3.372 1.949c-.135.074-.147.184 0 .258l2.722 1.569a.51.51 0 00.441 0l3.372-1.949c.135-.074.147-.197 0-.258l-2.71-1.569a.536.536 0 00-.453 0zm3.96 2.292l-3.372 1.938c-.135.085-.147.196 0 .269l2.71 1.558a.493.493 0 00.453 0l3.372-1.95c.123-.074.147-.196 0-.257l-2.71-1.57a.498.498 0 00-.453.012zm-7.921-4.548l-3.372 1.949c-.134.074-.147.196 0 .258l2.71 1.569a.496.496 0 00.454 0l3.372-1.937c.134-.086.147-.196 0-.27l-2.722-1.569a.462.462 0 00-.442 0zm15.854 9.122l-3.372 1.913c-.135.073-.147.183 0 .257l2.71 1.569a.536.536 0 00.453 0l3.372-1.949c.135-.074.147-.196 0-.258l-2.71-1.569a.547.547 0 00-.453.037zm-3.948-2.293l-3.372 1.949c-.135.074-.147.197 0 .258l2.709 1.569a.5.5 0 00.454 0l3.372-1.937c.135-.086.147-.196 0-.27l-2.722-1.557a.46.46 0 00-.441-.012zm23.773 13.671l-3.384 1.949c-.122.074-.147.197 0 .258l2.71 1.569a.496.496 0 00.454 0l3.371-1.937c.135-.086.148-.196 0-.27l-2.709-1.557a.467.467 0 00-.442-.012zm4.169 2.305l-5.492 3.176c-.135.073-.148.196 0 .257l2.709 1.569a.54.54 0 00.454 0l5.493-3.175c.135-.074.159-.184 0-.258l-2.71-1.569a.537.537 0 00-.454 0z" fill="#37474F"/><path d="M310.781 219.478l-3.372 1.938c-.135.073-.147.196 0 .257l5.898 3.421a.536.536 0 00.453 0l3.372-1.95c.135-.073.147-.196 0-.257l-5.91-3.409a.495.495 0 00-.441 0zm-7.92-10.176l-3.372 1.949c-.135.074-.159.196 0 .258l2.71 1.569a.495.495 0 00.453 0l3.372-1.937c.135-.086.147-.196 0-.27l-2.71-1.557a.466.466 0 00-.453-.012zm7.92 4.585l-3.372 1.938c-.135.085-.147.196 0 .257l2.71 1.569a.458.458 0 00.441 0l3.372-1.949c.135-.074.159-.196 0-.258l-2.71-1.569a.496.496 0 00-.441.012zm-3.96-2.28l-3.372 1.949c-.135.074-.147.184 0 .258l2.71 1.569a.537.537 0 00.453 0l3.372-1.949c.135-.074.147-.196 0-.258l-2.71-1.569a.536.536 0 00-.453 0zm-15.02 6.376l3.372-1.95c.135-.074.147-.196 0-.257l-2.722-1.57a.51.51 0 00-.441 0l-3.372 1.95c-.135.073-.147.184 0 .257l2.71 1.57a.537.537 0 00.453 0zm22.609-3.348l2.71 1.57a.484.484 0 00.441 0l3.372-1.95c.135-.073.16-.184 0-.257l-2.709-1.557a.489.489 0 00-.454 0l-3.372 1.949c-.123.061-.123.184.012.245zm-52.072-24.607l4.169 2.452a.493.493 0 00.453 0l3.372-1.95c.123-.073.147-.196 0-.257l-4.169-2.452a.537.537 0 00-.453 0l-3.372 1.949c-.11.074-.123.184 0 .258zm10.385-6.217l3.335 1.925a.496.496 0 00.454 0l3.433-1.961c.135-.086.147-.197 0-.27l-3.348-1.925a.51.51 0 00-.441 0l-3.372 1.949c-.196.098-.196.209-.061.282zm-15.522 8.902l5.21 3.016a.544.544 0 00.454 0l3.372-1.95c.135-.085.147-.196 0-.257l-5.223-3.016a.54.54 0 00-.454 0l-3.372 1.949c-.086.086-.11.196.013.258zm47.965 33.264l3.335 1.937a.536.536 0 00.453 0l3.372-1.95c.135-.073.147-.183 0-.257l-3.347-1.925a.497.497 0 00-.442 0l-3.371 1.949c-.098.074-.111.184 0 .246zm-52.784-30.469l3.335 1.925a.54.54 0 00.454 0l3.372-1.949c.135-.086.147-.196 0-.258l-3.335-1.937a.54.54 0 00-.454 0l-3.372 1.95c-.098.085-.122.196 0 .269zm50.405 1.484c.135-.074.147-.196 0-.258l-2.722-1.569a.472.472 0 00-.441 0l-3.372 1.937c-.135.086-.147.196 0 .27l2.709 1.557a.489.489 0 00.454 0l3.372-1.937zm7.933 4.573c.122-.073.147-.184 0-.257l-2.71-1.57a.54.54 0 00-.454 0l-3.372 1.95c-.134.073-.147.196 0 .257l2.71 1.57a.54.54 0 00.454 0l3.372-1.95zm-3.973-2.219c.135-.086.147-.196 0-.258l-2.709-1.569a.486.486 0 00-.454 0l-3.372 1.949c-.135.074-.147.197 0 .258l2.722 1.569a.497.497 0 00.442 0l3.371-1.949zm7.933 4.512c.135-.074.147-.196 0-.258l-2.722-1.569a.484.484 0 00-.441 0l-3.372 1.974c-.135.074-.147.184 0 .258l2.71 1.557a.493.493 0 00.453 0l3.372-1.962zm-15.118 24.166c-.135.074-.147.196 0 .258l4.169 2.452a.54.54 0 00.454 0l3.371-1.95c.135-.073.148-.196 0-.257l-4.181-2.452a.455.455 0 00-.441 0l-3.372 1.949zm-2.452-34.269c.123-.074.147-.184 0-.258l-2.636-1.508a.537.537 0 00-.453 0l-3.372 1.95c-.135.073-.147.184 0 .257l2.709 1.57a.528.528 0 00.442 0l3.31-2.011zm-3.923-2.281c.135-.085.147-.196 0-.269l-2.71-1.557a.486.486 0 00-.454 0l-3.371 1.949c-.135.074-.147.196 0 .257l2.722 1.57a.48.48 0 00.441 0l3.372-1.95zm-7.921-4.585c.123-.074.147-.184 0-.258l-2.71-1.569a.537.537 0 00-.453 0l-3.384 2.023c-.135.074-.148.184 0 .258l2.709 1.569a.54.54 0 00.454 0l3.384-2.023zm3.96 2.293c.135-.074.147-.197 0-.258l-2.722-1.569a.468.468 0 00-.441 0l-3.372 1.937c-.135.086-.147.196 0 .27l2.71 1.557a.497.497 0 00.454 0l3.371-1.937zm-1.385 26.508l3.372-1.937c.134-.086.147-.197 0-.27l-2.686-1.557a.482.482 0 00-.453 0l-3.372 1.949c-.135.074-.147.196 0 .258l2.71 1.569a.499.499 0 00.429-.012zm-30.236-11.881c-.135.074-.147.196 0 .257l3.335 1.938a.54.54 0 00.454 0l3.372-1.95c.122-.073.147-.196 0-.257l-3.335-1.999a.497.497 0 00-.454 0l-3.372 2.011zm-10.017-5.775c-.122.074-.147.184 0 .258l4.169 2.452a.497.497 0 00.454 0l3.371-1.95c.135-.073.147-.196 0-.257l-4.168-2.452a.5.5 0 00-.454 0l-3.372 1.949zm14.615 8.423c-.134.086-.147.197 0 .258l22.328 12.898a.51.51 0 00.441 0l3.372-1.949c.135-.074.159-.184 0-.258l-22.327-12.91a.5.5 0 00-.442 0l-3.372 1.961zm28.164 16.271c-.135.073-.148.183 0 .257l3.335 1.925a.495.495 0 00.453 0l3.372-1.937c.135-.086.147-.196 0-.27l-3.335-1.925a.54.54 0 00-.454 0l-3.371 1.95zm-4.598-2.661c-.123.086-.147.196 0 .27l3.335 1.925a.509.509 0 00.453 0l3.372-1.95c.135-.073.147-.184 0-.257l-3.335-1.925a.47.47 0 00-.441 0l-3.384 1.937zm9.183 5.309c-.135.073-.147.184 0 .257l3.335 1.925a.462.462 0 00.441 0l3.384-1.949c.123-.086.148-.196 0-.258l-3.335-1.937a.536.536 0 00-.453 0l-3.372 1.962zm-41.981-24.215c-.135.073-.148.196 0 .257l3.335 1.925a.482.482 0 00.453 0l3.372-1.949c.135-.074.147-.197 0-.258l-3.335-1.925a.497.497 0 00-.454 0l-3.371 1.95z" fill="#37474F"/><path d="M308.979 227.902l3.372-1.95c.134-.073.147-.184 0-.257l-7.884-4.574a.497.497 0 00-.454 0l-3.372 1.95c-.134.086-.147.196 0 .257l7.933 4.586a.54.54 0 00.405-.012zm-48.897-28.225l3.372-1.949c.135-.074.147-.197 0-.258l-2.71-1.569a.496.496 0 00-.453 0l-3.372 1.937c-.135.086-.147.196 0 .27l2.722 1.557a.468.468 0 00.441.012zm19.863 11.439l3.372-1.949c.135-.074.147-.184 0-.258l-2.722-1.569a.514.514 0 00-.442 0l-3.371 1.95c-.135.073-.148.184 0 .257l2.709 1.569a.54.54 0 00.454 0zm-3.997-2.292l3.372-1.938c.134-.085.147-.196 0-.269l-2.71-1.557a.486.486 0 00-.454 0l-3.372 1.949c-.122.074-.147.196 0 .257l2.71 1.57a.5.5 0 00.454-.012zm7.92 4.585l3.372-1.949c.135-.074.147-.196 0-.258l-2.71-1.569a.496.496 0 00-.453 0l-3.335 1.974c-.135.086-.148.196 0 .27l2.721 1.557a.464.464 0 00.405-.025zm-15.853-9.159l3.371-1.949c.135-.074.148-.184 0-.258l-2.721-1.569a.514.514 0 00-.442 0l-3.372 1.95c-.134.073-.147.183 0 .257l2.71 1.569a.54.54 0 00.454 0zm3.96 2.293l3.372-1.949c.135-.074.147-.197 0-.258l-2.71-1.569a.495.495 0 00-.453 0l-3.274 1.962c-.135.085-.147.196 0 .269l2.722 1.557c.112.04.235.036.343-.012zm-7.97-4.585l3.372-1.938c.135-.086.147-.196 0-.269l-2.71-1.558a.493.493 0 00-.453 0l-3.372 1.95c-.123.073-.147.196 0 .257l2.71 1.57a.51.51 0 00.453-.012zm63.267 25.38l3.372-1.95c.135-.073.147-.196 0-.257l-2.722-1.57a.524.524 0 00-.442 0l-3.371 1.95c-.135.073-.147.184 0 .257l2.709 1.57a.544.544 0 00.454 0zm5.064-6.535l-3.347 1.949c-.135.074-.148.196 0 .257l2.709 1.57a.54.54 0 00.454 0l3.372-1.95c.135-.073.147-.183 0-.257l-2.722-1.569a.51.51 0 00-.466 0zm4.009 2.292l-3.421 1.999c-.135.086-.147.196 0 .27l2.722 1.557a.473.473 0 00.442 0l3.371-1.95c.135-.073.147-.196 0-.257l-2.709-1.57a.5.5 0 00-.405-.049zm-5.113 6.535l3.372-1.949c.135-.074.147-.196 0-.258l-2.709-1.569a.5.5 0 00-.454 0l-3.372 1.937c-.135.086-.147.196 0 .27l2.722 1.557a.47.47 0 00.441.012zm-2.869-11.12l-3.371 1.949c-.135.074-.148.196 0 .258l2.709 1.569a.54.54 0 00.454 0l3.372-1.949c.135-.086.147-.196 0-.258l-2.71-1.569a.486.486 0 00-.454 0zm-22.67 13.082c-.123.074-.147.184 0 .258l2.709 1.569a.54.54 0 00.454 0l3.372-1.949c.135-.074.147-.184 0-.258l-2.71-1.569a.537.537 0 00-.454 0l-3.371 1.949zm7.957 4.537c-.135.073-.147.196 0 .257l2.722 1.57a.484.484 0 00.442 0l3.371-1.938c.135-.085.147-.196 0-.269l-2.709-1.557a.486.486 0 00-.454 0l-3.372 1.937zm-3.96-2.256c-.135.086-.147.196 0 .269l2.709 1.558a.497.497 0 00.454 0l3.372-1.95c.135-.073.147-.196 0-.257l-2.722-1.57a.484.484 0 00-.441 0l-3.372 1.95zm13.622-8.779l3.371-1.937c.135-.086.147-.197 0-.27l-2.709-1.557a.486.486 0 00-.454 0l-3.372 1.949c-.135.074-.147.196 0 .258l2.71 1.557a.509.509 0 00.454 0zm-2.305 5.861c.134-.074.147-.197 0-.258l-2.722-1.569a.475.475 0 00-.442 0l-3.371 1.937c-.135.086-.148.196 0 .27l2.709 1.557a.497.497 0 00.454 0l3.372-1.937zm24.264-9.429c.135-.086.147-.196 0-.27l-2.71-1.557a.497.497 0 00-.453 0l-3.311 1.962c-.135.073-.147.196 0 .257l2.71 1.57a.509.509 0 00.454 0l3.31-1.962zm-7.921-4.586c.123-.073.147-.184 0-.257l-2.709-1.57a.556.556 0 00-.227-.05.556.556 0 00-.227.05l-3.372 1.95c-.135.074-.147.196 0 .257l2.71 1.643a.537.537 0 00.454 0l3.371-2.023zm3.961 2.293c.135-.073.147-.196 0-.257l-2.722-1.57a.484.484 0 00-.442 0l-3.371 1.937c-.135.086-.147.197 0 .27l2.709 1.557a.486.486 0 00.454 0l3.372-1.937zm7.479 11.047l-3.372 1.937c-.135.086-.147.197 0 .27l2.71 1.557a.486.486 0 00.454 0l3.371-1.949c.135-.074.148-.196 0-.258l-2.709-1.569a.505.505 0 00-.454.012zm-7.332-.282c-.135.074-.147.184 0 .258l2.71 1.569a.536.536 0 00.453 0l3.372-1.949c.135-.074.147-.184 0-.258l-2.722-1.569a.51.51 0 00-.441 0l-3.372 1.949zm-6.511 7.357l3.372-1.95c.135-.073.147-.196 0-.257l-2.722-1.57a.484.484 0 00-.441 0l-3.372 1.95c-.135.073-.147.184 0 .257l2.71 1.557a.48.48 0 00.453.013zm8.755-.54l3.371-1.949c.135-.074.148-.196 0-.258l-2.709-1.569a.54.54 0 00-.454 0l-3.372 1.95c-.134.085-.147.196 0 .257l2.71 1.569a.486.486 0 00.454 0zm-7.063-4.095c-.134.074-.147.184 0 .258l2.71 1.569a.54.54 0 00.454 0l3.372-1.949c.134-.074.147-.197 0-.258l-2.722-1.569a.514.514 0 00-.442 0l-3.372 1.949zm5.641 4.929c.134-.086.147-.196 0-.257l-2.71-1.57a.497.497 0 00-.454 0l-3.372 1.95c-.134.073-.147.196 0 .257l2.71 1.57c.071.032.149.05.227.05a.556.556 0 00.227-.05l3.372-1.95zm-24.069 1.128c-.135.074-.147.184 0 .258l6.67 3.85a.497.497 0 00.454 0l3.372-1.95c.134-.074.147-.196 0-.257l-6.683-3.863a.536.536 0 00-.453 0l-3.36 1.962zm7.933 4.574c-.135.073-.147.196 0 .257l2.722 1.569a.472.472 0 00.441 0l3.372-1.937c.135-.086.147-.196 0-.27l-2.71-1.557a.497.497 0 00-.453 0l-3.372 1.938zm7.945-.982l3.372-1.937c.134-.086.147-.196 0-.269l-2.673-1.582a.486.486 0 00-.454 0l-3.372 1.949c-.135.074-.147.197 0 .258l2.722 1.569a.471.471 0 00.405.012zm6.768-16.674l-3.372 1.949c-.135.074-.147.196 0 .258l2.71 1.569a.472.472 0 00.441 0l3.384-1.937c.123-.086.147-.196 0-.27l-2.709-1.557a.497.497 0 00-.454-.012zm-4.818 2.783l-3.372 1.949c-.135.074-.147.197 0 .258l2.709 1.569a.502.502 0 00.454 0l3.372-1.937c.123-.086.147-.196 0-.27l-2.71-1.557a.487.487 0 00-.453-.012zm-6.499 7.369c.123-.074.147-.184 0-.258l-2.709-1.569a.54.54 0 00-.454 0l-3.372 1.949c-.135.074-.147.184 0 .258l2.71 1.569a.537.537 0 00.454 0l3.371-1.949zm1.447-.834l3.372-1.949c.123-.074.147-.184 0-.258l-2.685-1.582a.54.54 0 00-.454 0l-3.372 1.95c-.134.073-.147.196 0 .257l2.71 1.57a.509.509 0 00.429.012zm20.071 1.876l-2.71-1.557a.482.482 0 00-.453 0l-8.191 4.732c-.134.074-.147.197 0 .258l2.71 1.569a.54.54 0 00.454 0l8.19-4.732c.135-.086.159-.197 0-.27zm-20.978 9.048l2.71 1.57a.536.536 0 00.453 0l8.191-4.733c.134-.073.147-.184 0-.257l-2.637-1.631a.536.536 0 00-.453 0l-8.19 4.733c-.184.098-.197.208-.074.318zm25.809-11.562c.123-.085.147-.196 0-.269l-2.71-1.557a.486.486 0 00-.453 0l-3.372 1.949c-.135.074-.147.196 0 .258l2.71 1.569a.508.508 0 00.453 0l3.372-1.95zm-25.761 5.714l3.372-1.949c.135-.074.147-.197 0-.258l-2.722-1.569a.47.47 0 00-.441 0l-3.372 1.937c-.135.086-.147.196 0 .27l2.71 1.557a.487.487 0 00.453.012zm-9.391-32.737c.135-.073.147-.184 0-.257l-2.685-1.619a.528.528 0 00-.442 0l-3.335 2.023c-.135.074-.147.184 0 .258l2.71 1.569a.537.537 0 00.454 0l3.298-1.974zm7.933 4.586c.122-.086.147-.196 0-.27l-2.71-1.557a.486.486 0 00-.454 0l-3.371 1.95c-.135.073-.148.196 0 .257l2.709 1.569a.5.5 0 00.454 0l3.372-1.949zm-3.973-2.293c.135-.073.147-.196 0-.257l-2.71-1.57a.508.508 0 00-.453 0l-3.372 1.937c-.135.086-.147.197 0 .27l2.722 1.557a.462.462 0 00.441 0l3.372-1.937zm7.97 4.573c.135-.073.147-.183 0-.257l-2.722-1.569a.514.514 0 00-.442 0l-3.371 1.949c-.135.074-.147.184 0 .258l2.709 1.569a.54.54 0 00.454 0l3.372-1.95zm74.399-167.104v76.349a6.554 6.554 0 002.955 5.113l88.278 50.969c1.631.944 2.943.183 2.943-1.705v-76.349a6.512 6.512 0 00-2.943-5.112L410.021 45.41c-1.631-.944-2.955-.184-2.955 1.704z" fill="#37474F"/><path d="M410.021 128.576l88.278 50.969c1.631.944 2.943.183 2.943-1.705v-73.357l-94.176-54.377v73.357a6.517 6.517 0 002.955 5.113z" fill="#459CDE"/><path d="M414.386 60.724l29.696 17.165a3.92 3.92 0 011.778 3.066v5.505c0 1.14-.797 1.594-1.778 1.03l-29.696-17.166a3.91 3.91 0 01-1.778-3.065v-5.505c0-1.14.797-1.594 1.778-1.03z" fill="#EBEBEB"/><path d="M496.215 97.42a2.53 2.53 0 011.128 1.975c0 .723-.503 1.017-1.128.65a2.458 2.458 0 01-1.14-1.962c0-.724.502-1.018 1.14-.662zm-4.512-2.598a2.536 2.536 0 011.14 1.974c0 .723-.515 1.017-1.14.65a2.457 2.457 0 01-1.128-1.962c0-.724.503-1.018 1.128-.662zm-4.549-2.6a2.52 2.52 0 011.128 1.974c0 .724-.502 1.018-1.128.65a2.446 2.446 0 01-1.14-1.962c.049-.723.564-1.017 1.14-.662z" fill="#FAFAFA"/><path d="M414.386 73.512l40.78 23.541a3.882 3.882 0 011.765 3.016c0 1.104-.785 1.533-1.765.969l-40.78-23.541a3.864 3.864 0 01-1.778-3.016c0-1.104.797-1.533 1.778-.969zm0 8.865l40.78 23.541a3.856 3.856 0 011.765 3.016c0 1.103-.785 1.533-1.765.969l-40.78-23.541a3.903 3.903 0 01-1.778-3.017c0-1.103.797-1.532 1.778-.968zm0 8.853l40.78 23.516a3.878 3.878 0 011.765 3.016c0 1.103-.785 1.532-1.765.968l-40.78-23.54a3.865 3.865 0 01-1.778-3.017c0-1.079.797-1.508 1.778-.944zm0 8.864l40.78 23.541a3.856 3.856 0 011.765 3.016c0 1.091-.785 1.533-1.765.969l-40.78-23.541a3.908 3.908 0 01-1.778-3.017c0-1.103.797-1.532 1.778-.968zm.588 12.199l78.384 45.255a5.154 5.154 0 012.379 4.034v7.357c0 1.508-1.079 2.121-2.391 1.361l-78.286-45.28a5.234 5.234 0 01-2.366-4.083v-7.356c-.086-1.484.981-2.097 2.28-1.288z" fill="#EBEBEB"/><path d="M464.239 89.513l29.573 17.165a3.977 3.977 0 011.778 3.077l.123 40.609c0 1.128-.785 1.593-1.766 1.029l-29.696-17.165a3.907 3.907 0 01-1.778-3.065V90.53c0-1.128.797-1.532 1.766-1.017z" fill="#FAFAFA"/><path d="M468.015 106.641c4.206 2.452 7.614.454 7.614-4.402a15.51 15.51 0 00-2.133-7.356l-9.257-5.383c-.969-.564-1.766-.11-1.766 1.018v10.14a15.861 15.861 0 005.542 5.983zm27.636 24.853l-5.567-18.992c-.416-1.447-1.324-1.533-2.023-.196l-8.153 15.559-3.323-8.877c-.527-1.41-1.459-1.447-2.084-.074l-7.725 16.835 27.171 15.693c.821.479 1.508.209 1.704-.551v-19.397z" fill="#263238"/><path d="M193.358 19.944L227.419.327c1.3-.76 2.354-.148 2.354 1.36v71.31a5.233 5.233 0 01-2.354 4.095L193.358 96.71c-1.3.748-2.366.135-2.366-1.373V24.014a5.256 5.256 0 012.366-4.071z" fill="#FFB900"/><path d="M190.992 34.105l38.781-22.388v51.177l-38.781 22.389V34.105z" fill="#FAFAFA"/><path d="M207.777 49.04c.417-1.447 1.422-1.595 2.244-.332l4.144 6.4 7.773-23.295c.478-1.435 1.423-1.508 2.121-.172l5.714 11.035V62.82l-31.216 18.023 9.22-31.805zm-16.786-2.073a6.132 6.132 0 005.542-.736 18.396 18.396 0 008.338-14.418 6.5 6.5 0 00-1.643-4.77l-12.261 7.062.024 12.862z" fill="#455A64"/><path d="M196.57 22.188c1.116-.65 2.023-.123 2.023 1.165a4.411 4.411 0 01-2.023 3.482c-1.115.637-2.01.122-2.01-1.227a4.427 4.427 0 012.01-3.42zm5.873-2.906l11.366-6.56c.466-.257.846-.073.846.43a1.815 1.815 0 01-.846 1.397l-11.366 6.56c-.466.27-.846.073-.846-.43a1.815 1.815 0 01.846-1.397zm0 3.127l6.253-3.679c.466-.27.846-.073.846.43a1.815 1.815 0 01-.846 1.397l-6.253 3.678c-.466.27-.846.086-.846-.416a1.814 1.814 0 01.846-1.41zm-3.359 67.226h-.662c-.858 0-1.888-.404-1.888-1.643a2.883 2.883 0 011.312-2.268c.564-.319 1.042-.184 1.226.282a2.879 2.879 0 011.226-1.692c.723-.417 1.312-.086 1.312.748a7.359 7.359 0 01-1.876 3.813l-.65.76zm9.931-10.679l4.757-2.734c.221-.135.393 0 .393.22v3.36a.904.904 0 01-.393.686l-4.757 2.735c-.209.135-.392 0-.392-.221v-3.36a.928.928 0 01.392-.686z" fill="#FAFAFA"/><path d="M209.738 83.725c0 .442.172.479.368.086l1.055-2.06-1.423.773v1.201zm15.928-12.322l-2.735-.883v1.312a5.589 5.589 0 00-2.672 3.029 2.132 2.132 0 00.266 1.665 2.157 2.157 0 001.389.959 2.028 2.028 0 01-.724-1.668c.16-1.152.81-1.557 1.741-1.962v1.533l2.735-3.985z" fill="#FAFAFA"/><path d="M176.34 2.975v76.349a6.523 6.523 0 01-2.943 5.112l-88.279 50.969c-1.63.944-2.942.184-2.942-1.704V57.352a6.509 6.509 0 012.942-5.113l88.279-50.968c1.631-.944 2.943-.184 2.943 1.704z" fill="#404E4C"/><path d="M173.397 84.436l-88.279 50.969c-1.63.944-2.942.184-2.942-1.704V60.344L176.34 5.967v73.357a6.523 6.523 0 01-2.943 5.112z" fill="#02897A"/><path d="M169.032 16.584L139.336 33.75a3.918 3.918 0 00-1.777 3.065v5.505c0 1.14.797 1.594 1.777 1.03l29.696-17.165a3.91 3.91 0 001.778-3.065v-5.506c.013-1.14-.797-1.594-1.778-1.03z" fill="#EBEBEB"/><path d="M87.203 53.282a2.527 2.527 0 00-1.128 1.974c0 .723.502 1.017 1.128.65a2.452 2.452 0 001.14-1.962c0-.724-.503-1.018-1.14-.663zm4.512-2.6a2.538 2.538 0 00-1.14 1.974c0 .724.515 1.018 1.14.65a2.453 2.453 0 001.128-1.962c0-.723-.49-1.017-1.128-.662zm4.499-2.599a2.526 2.526 0 00-1.128 1.974c0 .723.503 1.018 1.128.65a2.452 2.452 0 001.14-1.962c0-.723-.514-1.018-1.14-.662z" fill="#FAFAFA"/><path d="M169.032 29.373l-40.78 23.54a3.895 3.895 0 00-1.765 3.017c0 1.103.785 1.532 1.765.968l40.78-23.54a3.864 3.864 0 001.778-3.017c.012-1.103-.797-1.532-1.778-.968zm0 8.864l-40.78 23.541a3.843 3.843 0 00-1.765 3.017c0 1.103.785 1.532 1.765.968l40.78-23.54a3.903 3.903 0 001.778-3.017c.012-1.104-.797-1.533-1.778-.969zm0 8.853l-40.78 23.516a3.894 3.894 0 00-1.765 3.016c0 1.104.785 1.533 1.765.969l40.78-23.54a3.865 3.865 0 001.778-3.017c.012-1.08-.797-1.508-1.778-.944zm0 8.864l-40.78 23.541a3.843 3.843 0 00-1.765 3.016c0 1.092.785 1.533 1.765.97l40.78-23.542a3.903 3.903 0 001.778-3.016c.012-1.104-.797-1.533-1.778-.969zm-.588 12.2L90.06 113.409a5.155 5.155 0 00-2.342 4.083v7.357c0 1.508 1.079 2.121 2.378 1.361l78.299-45.28a5.24 5.24 0 002.366-4.083V69.49c.061-1.532-1.018-2.145-2.317-1.336z" fill="#EBEBEB"/><path d="M119.179 45.373L89.606 62.54a3.985 3.985 0 00-1.778 3.077l-.122 40.608c0 1.128.784 1.594 1.765 1.03l29.696-17.165a3.909 3.909 0 001.778-3.065V46.39c0-1.128-.797-1.533-1.766-1.018z" fill="#FAFAFA"/><path d="M115.403 62.502c-4.205 2.452-7.614.453-7.614-4.402a15.51 15.51 0 012.133-7.357l9.257-5.382c.969-.564 1.766-.11 1.766 1.018v10.14a15.85 15.85 0 01-5.542 5.983zM87.767 87.355l5.566-18.993c.417-1.446 1.324-1.532 2.023-.196l8.154 15.56 3.322-8.877c.528-1.41 1.459-1.447 2.085-.074l7.724 16.834-27.17 15.694c-.834.478-1.508.209-1.704-.552V87.355z" fill="#263238"/><path d="M356.882 80.01v71.003c0 .736-.515 1.03-1.14.662l-96.788-55.873a2.543 2.543 0 01-1.153-1.998V22.789c0-.736.515-1.03 1.153-.663l96.788 55.837a2.575 2.575 0 011.14 2.047z" fill="#F03E3D"/><path d="M258.954 22.139l96.788 55.824a2.574 2.574 0 011.14 1.998v5.04l-99.081-57.308v-4.904c0-.724.515-1.018 1.153-.65z" fill="#37474F"/><path d="M352.713 78.171a2.448 2.448 0 011.14 1.974c0 .724-.502 1.018-1.14.65a2.447 2.447 0 01-1.128-1.962c0-.723.503-1.017 1.128-.662zm-4.5-2.599a2.538 2.538 0 011.141 1.974c0 .723-.515 1.017-1.141.65a2.454 2.454 0 01-1.128-1.962c0-.724.503-1.018 1.128-.662zm-4.512-2.599a2.519 2.519 0 011.128 1.974c0 .723-.502 1.017-1.128.65a2.445 2.445 0 01-1.14-1.962c.012-.724.527-1.018 1.14-.662z" fill="#FAFAFA"/><path d="M276.83 45.25c-4.622-2.672-8.362-.502-8.362 4.82a18.462 18.462 0 008.362 14.48c4.61 2.66 8.35.502 8.35-4.831a18.476 18.476 0 00-8.35-14.468z" fill="#fff"/><path d="M276.266 49.088c-1.496-.87-2.709-.171-2.709 1.57a6.004 6.004 0 002.709 4.696c1.496.858 2.71.159 2.71-1.57a5.981 5.981 0 00-2.71-4.696zm-4.72 9.576c0-2.845 1.986-3.997 4.451-2.575l1.532.895a9.812 9.812 0 014.463 7.712v.76a6.35 6.35 0 01-5.162-.907 16.374 16.374 0 01-5.284-5.223v-.662z" fill="#263238"/><path d="M292.132 55.084l13.009 7.516a2.984 2.984 0 011.41 2.33c0 .845-.625 1.164-1.41.71l-13.009-7.515a2.963 2.963 0 01-1.41-2.33c0-.846.625-1.128 1.41-.711zm0 7.454L313.331 74.8a2.987 2.987 0 011.398 2.33c0 .846-.625 1.226-1.398.711l-21.199-12.26a2.963 2.963 0 01-1.41-2.33c0-.846.625-1.165 1.41-.712zm0 5.616l21.199 12.26a3.027 3.027 0 011.398 2.33c0 .847-.625 1.227-1.398.712l-21.199-12.261a3.012 3.012 0 01-1.41-2.342c0-.834.625-1.153 1.41-.699zm59.527 65.118v8.227c0 .748-.515 1.067-1.165.686l-23.296-13.425-2.072-1.226a2.614 2.614 0 01-1.226-2.048v-8.239c0-.748.527-1.055 1.226-.687l25.343 14.64a2.59 2.59 0 011.19 2.072zm0-43.428v35.654c0 .761-.515 1.067-1.165.687l-23.296-13.487-2.072-1.226a2.59 2.59 0 01-1.226-2.035V73.855c0-.76.527-1.054 1.226-.686l25.368 14.603a2.602 2.602 0 011.165 2.072z" fill="#fff"/><path d="M323.961 73.855v9.012a12.778 12.778 0 004.218 4.304c3.556 2.047 6.425.392 6.425-3.679a12.821 12.821 0 00-1.557-5.7l-7.896-4.562c-.662-.43-1.19-.172-1.19.625zm27.698 38.904v12.739c0 .761-.515 1.067-1.165.687l-23.296-13.487 6.977-14.713 4.414 9.588 7.037-14.247 6.033 19.433z" fill="#263238"/><path d="M264.79 63.924l51.937 29.978a3.528 3.528 0 011.766 2.624c0 .883-.785 1.14-1.766.576l-51.888-29.966a3.526 3.526 0 01-1.815-2.66c0-.858.785-1.128 1.766-.552zm0 8.019l51.937 29.953a3.53 3.53 0 011.766 2.624c0 .883-.785 1.14-1.766.576L264.79 75.143a3.537 3.537 0 01-1.766-2.624c0-.883.785-1.14 1.766-.576zm0 8.018l51.937 29.966a3.529 3.529 0 011.766 2.612c0 .895-.785 1.152-1.766.588l-51.888-29.965a3.537 3.537 0 01-1.766-2.624c-.049-.883.736-1.14 1.717-.577zm0 8.031l51.937 29.954a3.52 3.52 0 011.766 2.624c0 .882-.785 1.14-1.766.576l-51.888-29.954a3.536 3.536 0 01-1.766-2.623c-.049-.883.736-1.14 1.717-.577z" fill="#fff"/><path d="M224.231 277.289l-8.718-5.101a1.437 1.437 0 01-.71-2.2c.176-.244.425-.427.71-.522l34.061-19.617a5.17 5.17 0 014.721 0l8.717 5.1a1.432 1.432 0 01.71 2.2 1.432 1.432 0 01-.71.522l-34.061 19.618a5.254 5.254 0 01-4.72 0z" fill="#B9B9B9"/><path d="M218.91 269.528l6.633-3.826a3.477 3.477 0 013.114 0l6.633 3.826a.957.957 0 010 1.802l-6.633 3.838a3.49 3.49 0 01-3.114 0l-6.633-3.838a.955.955 0 010-1.802z" fill="#fff"/><path d="M223.851 270.3l3.604 2.084a.562.562 0 00.761-.208l1.728-2.992c.148-.269 0-.441-.269-.38l-5.763 1.116c-.294.049-.368.233-.061.38z" fill="#37474F"/><path d="M234.297 263.863a2.719 2.719 0 002.452 0l16.295-9.404c.687-.405.724-1.03.074-1.41a2.696 2.696 0 00-2.453 0l-16.307 9.404c-.674.405-.711 1.03-.061 1.41zm4.365 2.489a2.719 2.719 0 002.452 0l7.357-4.291c.686-.405.723-1.03.073-1.398a2.678 2.678 0 00-2.452 0l-7.356 4.291c-.687.405-.724 1.03-.074 1.398z" fill="#fff"/><path d="M207.605 267.688l-8.717-5.088a1.443 1.443 0 01-.973-1.367 1.442 1.442 0 01.973-1.367l34.061-19.618a5.254 5.254 0 014.72 0l8.718 5.101a1.447 1.447 0 010 2.734l-34.061 19.618a5.184 5.184 0 01-4.721-.013z" fill="#FF7800"/><path d="M202.321 259.939l6.633-3.825a3.412 3.412 0 013.114 0l6.633 3.825a.955.955 0 010 1.803l-6.633 3.813a3.412 3.412 0 01-3.114 0l-6.633-3.825a.962.962 0 01-.62-.896.954.954 0 01.62-.895z" fill="#fff"/><path d="M207.262 260.712l3.592 2.072a.58.58 0 00.43.056.563.563 0 00.343-.264l1.729-2.98c.147-.27 0-.441-.27-.38l-5.763 1.104c-.294.061-.331.232-.061.392z" fill="#37474F"/><path d="M217.708 254.263a2.734 2.734 0 002.452 0l16.295-9.417c.687-.392.724-1.03.074-1.398a2.697 2.697 0 00-2.452 0l-16.307 9.417c-.675.429-.712 1.03-.062 1.398zm4.365 2.501a2.684 2.684 0 002.452 0l7.357-4.279c.687-.405.723-1.03.073-1.41a2.69 2.69 0 00-2.452 0l-7.356 4.291c-.687.38-.724 1.018-.074 1.398z" fill="#fff"/><path d="M458.28 268.424l10.875-6.351c1.631-.944 1.631-2.452 0-3.409l-42.496-24.521a6.475 6.475 0 00-5.885 0l-10.863 6.351c-1.631.944-1.631 2.452 0 3.408l42.484 24.522a6.497 6.497 0 005.885 0z" fill="#37474F"/><path d="M434.825 241.524l-8.276-4.782a4.267 4.267 0 00-3.887 0l-8.276 4.782a1.22 1.22 0 00-.732 1.121 1.225 1.225 0 00.732 1.122l8.276 4.77a4.26 4.26 0 003.887 0l8.276-4.77a1.23 1.23 0 00.731-1.122 1.224 1.224 0 00-.731-1.121z" fill="#F03E3D"/><path d="M424.182 240.445l-3.335 1.924c-.662.381-.588.81.148.957l6.13 1.226c.748.147 1.018-.258.625-.895l-1.692-2.734a1.421 1.421 0 00-1.876-.478zm38.169 20.843a3.404 3.404 0 01-3.041 0l-20.329-11.746c-.87-.49-.907-1.226-.098-1.741a3.388 3.388 0 013.029 0l20.34 11.746c.871.491.908 1.275.099 1.741zm-16.467-3.286a3.371 3.371 0 01-3.041 0l-9.195-5.358c-.859-.49-.895-1.226-.086-1.741a3.385 3.385 0 013.028 0l9.208 5.358c.895.491.895 1.275.086 1.741z" fill="#fff"/><path d="M429.528 284.768l10.876-6.364c1.63-.944 1.63-2.452 0-3.408l-42.497-24.522a6.47 6.47 0 00-5.885 0l-10.888 6.351c-1.618.944-1.618 2.452 0 3.409l42.497 24.522a6.572 6.572 0 005.897.012z" fill="#37474F"/><path d="M401.977 255.464a13.49 13.49 0 00-12.162 0c-3.36 1.937-3.36 5.088 0 7.026a13.49 13.49 0 0012.162 0c3.36-1.938 3.36-5.089 0-7.026zm31.658 22.156a3.295 3.295 0 01-3.028 0l-20.341-11.746c-.859-.491-.895-1.226-.086-1.741a3.372 3.372 0 013.028 0l20.341 11.746c.883.49.883 1.275.086 1.741zm-16.454-3.286a3.331 3.331 0 01-3.04 0l-9.196-5.358c-.858-.491-.907-1.226-.086-1.741a3.388 3.388 0 013.028 0l9.208 5.358c.859.502.895 1.275.086 1.741z" fill="#fff"/><path d="M392.267 260.724l-.392-.821c-.515-1.079-.822-2.551.662-3.409a3.974 3.974 0 013.678 0c.785.454.956 1.116.515 1.668a4.08 4.08 0 012.894.294 1.12 1.12 0 01.751 1.054 1.12 1.12 0 01-.751 1.055c-1.447.833-3.997.674-5.886.38l-1.471-.221z" fill="#F03E3D"/></svg>